<?xml version="1.0" encoding="UTF-8" standalone="no"?>
<!DOCTYPE svg PUBLIC "-//W3C//DTD SVG 1.1//EN"
 "http://www.w3.org/Graphics/SVG/1.1/DTD/svg11.dtd">
<!-- Generated by graphviz version 12.2.0 (20241103.1931)
 -->
<!-- Pages: 1 -->
<svg width="596pt" height="511pt"
 viewBox="0.00 0.00 595.50 511.00" xmlns="http://www.w3.org/2000/svg" xmlns:xlink="http://www.w3.org/1999/xlink">
<g id="graph0" class="graph" transform="scale(1 1) rotate(0) translate(4 507)">
<polygon fill="white" stroke="none" points="-4,4 -4,-507 591.5,-507 591.5,4 -4,4"/>
<g id="clust1" class="cluster">
<title>cluster_input</title>
<polygon fill="none" stroke="black" points="0,-8 0,-495 79.75,-495 79.75,-8 0,-8"/>
<text text-anchor="middle" x="39.88" y="-477.7" font-family="Times,serif" font-size="14.00">Input Layer</text>
</g>
<g id="clust2" class="cluster">
<title>cluster_hidden</title>
<polygon fill="none" stroke="black" points="243.75,-8 243.75,-495 334.75,-495 334.75,-8 243.75,-8"/>
<text text-anchor="middle" x="289.25" y="-477.7" font-family="Times,serif" font-size="14.00">Hidden Layer</text>
</g>
<g id="clust3" class="cluster">
<title>cluster_output</title>
<polygon fill="none" stroke="black" points="498.75,-124 498.75,-379 587.5,-379 587.5,-124 498.75,-124"/>
<text text-anchor="middle" x="543.13" y="-361.7" font-family="Times,serif" font-size="14.00">Output Layer</text>
</g>
<!-- x1 -->
<g id="node1" class="node">
<title>x1</title>
<ellipse fill="lightblue" stroke="black" cx="39.38" cy="-268" rx="20.13" ry="20.13"/>
<text text-anchor="middle" x="39.38" y="-262.95" font-family="Times,serif" font-size="14.00">x1</text>
</g>
<!-- h1 -->
<g id="node9" class="node">
<title>h1</title>
<ellipse fill="lightgreen" stroke="black" cx="288.75" cy="-36" rx="20.13" ry="20.13"/>
<text text-anchor="middle" x="288.75" y="-30.95" font-family="Times,serif" font-size="14.00">h1</text>
</g>
<!-- x1&#45;&gt;h1 -->
<g id="edge1" class="edge">
<title>x1&#45;&gt;h1</title>
<path fill="none" stroke="black" d="M56.59,-257.05C63.9,-251.87 72.5,-245.42 79.75,-239 159.3,-168.54 162.39,-133.37 243.75,-65 249.13,-60.48 255.25,-56.05 261.18,-52.08"/>
<polygon fill="black" stroke="black" points="263.02,-55.05 269.53,-46.7 259.23,-49.17 263.02,-55.05"/>
</g>
<!-- h2 -->
<g id="node10" class="node">
<title>h2</title>
<ellipse fill="lightgreen" stroke="black" cx="288.75" cy="-94" rx="20.13" ry="20.13"/>
<text text-anchor="middle" x="288.75" y="-88.95" font-family="Times,serif" font-size="14.00">h2</text>
</g>
<!-- x1&#45;&gt;h2 -->
<g id="edge2" class="edge">
<title>x1&#45;&gt;h2</title>
<path fill="none" stroke="black" d="M56.32,-256.33C90.42,-231.44 173.12,-171.43 243.75,-123 249.55,-119.02 255.84,-114.82 261.79,-110.88"/>
<polygon fill="black" stroke="black" points="263.65,-113.85 270.09,-105.43 259.81,-108 263.65,-113.85"/>
</g>
<!-- h3 -->
<g id="node11" class="node">
<title>h3</title>
<ellipse fill="lightgreen" stroke="black" cx="288.75" cy="-152" rx="20.13" ry="20.13"/>
<text text-anchor="middle" x="288.75" y="-146.95" font-family="Times,serif" font-size="14.00">h3</text>
</g>
<!-- x1&#45;&gt;h3 -->
<g id="edge3" class="edge">
<title>x1&#45;&gt;h3</title>
<path fill="none" stroke="black" d="M58.17,-259.66C100.69,-239.72 208.48,-189.17 259.79,-165.11"/>
<polygon fill="black" stroke="black" points="261.18,-168.32 268.75,-160.91 258.21,-161.99 261.18,-168.32"/>
</g>
<!-- h4 -->
<g id="node12" class="node">
<title>h4</title>
<ellipse fill="lightgreen" stroke="black" cx="288.75" cy="-210" rx="20.13" ry="20.13"/>
<text text-anchor="middle" x="288.75" y="-204.95" font-family="Times,serif" font-size="14.00">h4</text>
</g>
<!-- x1&#45;&gt;h4 -->
<g id="edge4" class="edge">
<title>x1&#45;&gt;h4</title>
<path fill="none" stroke="black" d="M59.38,-263.55C102.09,-253.53 206.01,-229.16 257.63,-217.06"/>
<polygon fill="black" stroke="black" points="258.27,-220.51 267.21,-214.82 256.68,-213.69 258.27,-220.51"/>
</g>
<!-- h5 -->
<g id="node13" class="node">
<title>h5</title>
<ellipse fill="lightgreen" stroke="black" cx="288.75" cy="-268" rx="20.13" ry="20.13"/>
<text text-anchor="middle" x="288.75" y="-262.95" font-family="Times,serif" font-size="14.00">h5</text>
</g>
<!-- x1&#45;&gt;h5 -->
<g id="edge5" class="edge">
<title>x1&#45;&gt;h5</title>
<path fill="none" stroke="black" d="M59.79,-268C102.6,-268 205.41,-268 257.05,-268"/>
<polygon fill="black" stroke="black" points="256.92,-271.5 266.92,-268 256.92,-264.5 256.92,-271.5"/>
</g>
<!-- h6 -->
<g id="node14" class="node">
<title>h6</title>
<ellipse fill="lightgreen" stroke="black" cx="288.75" cy="-326" rx="20.13" ry="20.13"/>
<text text-anchor="middle" x="288.75" y="-320.95" font-family="Times,serif" font-size="14.00">h6</text>
</g>
<!-- x1&#45;&gt;h6 -->
<g id="edge6" class="edge">
<title>x1&#45;&gt;h6</title>
<path fill="none" stroke="black" d="M59.38,-272.45C102.09,-282.47 206.01,-306.84 257.63,-318.94"/>
<polygon fill="black" stroke="black" points="256.68,-322.31 267.21,-321.18 258.27,-315.49 256.68,-322.31"/>
</g>
<!-- h7 -->
<g id="node15" class="node">
<title>h7</title>
<ellipse fill="lightgreen" stroke="black" cx="288.75" cy="-384" rx="20.13" ry="20.13"/>
<text text-anchor="middle" x="288.75" y="-378.95" font-family="Times,serif" font-size="14.00">h7</text>
</g>
<!-- x1&#45;&gt;h7 -->
<g id="edge7" class="edge">
<title>x1&#45;&gt;h7</title>
<path fill="none" stroke="black" d="M58.17,-276.34C100.69,-296.28 208.48,-346.83 259.79,-370.89"/>
<polygon fill="black" stroke="black" points="258.21,-374.01 268.75,-375.09 261.18,-367.68 258.21,-374.01"/>
</g>
<!-- h8 -->
<g id="node16" class="node">
<title>h8</title>
<ellipse fill="lightgreen" stroke="black" cx="288.75" cy="-442" rx="20.13" ry="20.13"/>
<text text-anchor="middle" x="288.75" y="-436.95" font-family="Times,serif" font-size="14.00">h8</text>
</g>
<!-- x1&#45;&gt;h8 -->
<g id="edge8" class="edge">
<title>x1&#45;&gt;h8</title>
<path fill="none" stroke="black" d="M56.32,-279.67C90.42,-304.56 173.12,-364.57 243.75,-413 249.55,-416.98 255.84,-421.18 261.79,-425.12"/>
<polygon fill="black" stroke="black" points="259.81,-428 270.09,-430.57 263.65,-422.15 259.81,-428"/>
</g>
<!-- x2 -->
<g id="node2" class="node">
<title>x2</title>
<ellipse fill="lightblue" stroke="black" cx="39.38" cy="-326" rx="20.13" ry="20.13"/>
<text text-anchor="middle" x="39.38" y="-320.95" font-family="Times,serif" font-size="14.00">x2</text>
</g>
<!-- x2&#45;&gt;h1 -->
<g id="edge9" class="edge">
<title>x2&#45;&gt;h1</title>
<path fill="none" stroke="black" d="M57.02,-315.51C64.42,-310.42 72.97,-303.91 79.75,-297 168.16,-206.85 153.02,-152.82 243.75,-65 249.01,-59.91 255.29,-55.16 261.43,-51.05"/>
<polygon fill="black" stroke="black" points="262.92,-54.24 269.52,-45.95 259.19,-48.32 262.92,-54.24"/>
</g>
<!-- x2&#45;&gt;h2 -->
<g id="edge10" class="edge">
<title>x2&#45;&gt;h2</title>
<path fill="none" stroke="black" d="M56.59,-315.05C63.9,-309.87 72.5,-303.42 79.75,-297 159.3,-226.54 162.39,-191.37 243.75,-123 249.13,-118.48 255.25,-114.05 261.18,-110.08"/>
<polygon fill="black" stroke="black" points="263.02,-113.05 269.53,-104.7 259.23,-107.17 263.02,-113.05"/>
</g>
<!-- x2&#45;&gt;h3 -->
<g id="edge11" class="edge">
<title>x2&#45;&gt;h3</title>
<path fill="none" stroke="black" d="M56.32,-314.33C90.42,-289.44 173.12,-229.43 243.75,-181 249.55,-177.02 255.84,-172.82 261.79,-168.88"/>
<polygon fill="black" stroke="black" points="263.65,-171.85 270.09,-163.43 259.81,-166 263.65,-171.85"/>
</g>
<!-- x2&#45;&gt;h4 -->
<g id="edge12" class="edge">
<title>x2&#45;&gt;h4</title>
<path fill="none" stroke="black" d="M58.17,-317.66C100.69,-297.72 208.48,-247.17 259.79,-223.11"/>
<polygon fill="black" stroke="black" points="261.18,-226.32 268.75,-218.91 258.21,-219.99 261.18,-226.32"/>
</g>
<!-- x2&#45;&gt;h5 -->
<g id="edge13" class="edge">
<title>x2&#45;&gt;h5</title>
<path fill="none" stroke="black" d="M59.38,-321.55C102.09,-311.53 206.01,-287.16 257.63,-275.06"/>
<polygon fill="black" stroke="black" points="258.27,-278.51 267.21,-272.82 256.68,-271.69 258.27,-278.51"/>
</g>
<!-- x2&#45;&gt;h6 -->
<g id="edge14" class="edge">
<title>x2&#45;&gt;h6</title>
<path fill="none" stroke="black" d="M59.79,-326C102.6,-326 205.41,-326 257.05,-326"/>
<polygon fill="black" stroke="black" points="256.92,-329.5 266.92,-326 256.92,-322.5 256.92,-329.5"/>
</g>
<!-- x2&#45;&gt;h7 -->
<g id="edge15" class="edge">
<title>x2&#45;&gt;h7</title>
<path fill="none" stroke="black" d="M59.38,-330.45C102.09,-340.47 206.01,-364.84 257.63,-376.94"/>
<polygon fill="black" stroke="black" points="256.68,-380.31 267.21,-379.18 258.27,-373.49 256.68,-380.31"/>
</g>
<!-- x2&#45;&gt;h8 -->
<g id="edge16" class="edge">
<title>x2&#45;&gt;h8</title>
<path fill="none" stroke="black" d="M58.17,-334.34C100.69,-354.28 208.48,-404.83 259.79,-428.89"/>
<polygon fill="black" stroke="black" points="258.21,-432.01 268.75,-433.09 261.18,-425.68 258.21,-432.01"/>
</g>
<!-- x3 -->
<g id="node3" class="node">
<title>x3</title>
<ellipse fill="lightblue" stroke="black" cx="39.38" cy="-384" rx="20.13" ry="20.13"/>
<text text-anchor="middle" x="39.38" y="-378.95" font-family="Times,serif" font-size="14.00">x3</text>
</g>
<!-- x3&#45;&gt;h1 -->
<g id="edge17" class="edge">
<title>x3&#45;&gt;h1</title>
<path fill="none" stroke="black" d="M56.96,-374.08C64.52,-369.01 73.22,-362.37 79.75,-355 177.98,-244.2 142.67,-173.2 243.75,-65 248.75,-59.65 254.93,-54.81 261.05,-50.68"/>
<polygon fill="black" stroke="black" points="262.55,-53.87 269.18,-45.62 258.84,-47.93 262.55,-53.87"/>
</g>
<!-- x3&#45;&gt;h2 -->
<g id="edge18" class="edge">
<title>x3&#45;&gt;h2</title>
<path fill="none" stroke="black" d="M57.02,-373.51C64.42,-368.42 72.97,-361.91 79.75,-355 168.16,-264.85 153.02,-210.82 243.75,-123 249.01,-117.91 255.29,-113.16 261.43,-109.05"/>
<polygon fill="black" stroke="black" points="262.92,-112.24 269.52,-103.95 259.19,-106.32 262.92,-112.24"/>
</g>
<!-- x3&#45;&gt;h3 -->
<g id="edge19" class="edge">
<title>x3&#45;&gt;h3</title>
<path fill="none" stroke="black" d="M56.59,-373.05C63.9,-367.87 72.5,-361.42 79.75,-355 159.3,-284.54 162.39,-249.37 243.75,-181 249.13,-176.48 255.25,-172.05 261.18,-168.08"/>
<polygon fill="black" stroke="black" points="263.02,-171.05 269.53,-162.7 259.23,-165.17 263.02,-171.05"/>
</g>
<!-- x3&#45;&gt;h4 -->
<g id="edge20" class="edge">
<title>x3&#45;&gt;h4</title>
<path fill="none" stroke="black" d="M56.32,-372.33C90.42,-347.44 173.12,-287.43 243.75,-239 249.55,-235.02 255.84,-230.82 261.79,-226.88"/>
<polygon fill="black" stroke="black" points="263.65,-229.85 270.09,-221.43 259.81,-224 263.65,-229.85"/>
</g>
<!-- x3&#45;&gt;h5 -->
<g id="edge21" class="edge">
<title>x3&#45;&gt;h5</title>
<path fill="none" stroke="black" d="M58.17,-375.66C100.69,-355.72 208.48,-305.17 259.79,-281.11"/>
<polygon fill="black" stroke="black" points="261.18,-284.32 268.75,-276.91 258.21,-277.99 261.18,-284.32"/>
</g>
<!-- x3&#45;&gt;h6 -->
<g id="edge22" class="edge">
<title>x3&#45;&gt;h6</title>
<path fill="none" stroke="black" d="M59.38,-379.55C102.09,-369.53 206.01,-345.16 257.63,-333.06"/>
<polygon fill="black" stroke="black" points="258.27,-336.51 267.21,-330.82 256.68,-329.69 258.27,-336.51"/>
</g>
<!-- x3&#45;&gt;h7 -->
<g id="edge23" class="edge">
<title>x3&#45;&gt;h7</title>
<path fill="none" stroke="black" d="M59.79,-384C102.6,-384 205.41,-384 257.05,-384"/>
<polygon fill="black" stroke="black" points="256.92,-387.5 266.92,-384 256.92,-380.5 256.92,-387.5"/>
</g>
<!-- x3&#45;&gt;h8 -->
<g id="edge24" class="edge">
<title>x3&#45;&gt;h8</title>
<path fill="none" stroke="black" d="M59.38,-388.45C102.09,-398.47 206.01,-422.84 257.63,-434.94"/>
<polygon fill="black" stroke="black" points="256.68,-438.31 267.21,-437.18 258.27,-431.49 256.68,-438.31"/>
</g>
<!-- x4 -->
<g id="node4" class="node">
<title>x4</title>
<ellipse fill="lightblue" stroke="black" cx="39.38" cy="-442" rx="20.13" ry="20.13"/>
<text text-anchor="middle" x="39.38" y="-436.95" font-family="Times,serif" font-size="14.00">x4</text>
</g>
<!-- x4&#45;&gt;h1 -->
<g id="edge25" class="edge">
<title>x4&#45;&gt;h1</title>
<path fill="none" stroke="black" d="M57.21,-432.29C64.82,-427.27 73.49,-420.61 79.75,-413 188.35,-280.93 131.75,-194.19 243.75,-65 248.55,-59.47 254.65,-54.56 260.77,-50.42"/>
<polygon fill="black" stroke="black" points="262.26,-53.62 268.93,-45.38 258.58,-47.66 262.26,-53.62"/>
</g>
<!-- x4&#45;&gt;h2 -->
<g id="edge26" class="edge">
<title>x4&#45;&gt;h2</title>
<path fill="none" stroke="black" d="M56.96,-432.08C64.52,-427.01 73.22,-420.37 79.75,-413 177.98,-302.2 142.67,-231.2 243.75,-123 248.75,-117.65 254.93,-112.81 261.05,-108.68"/>
<polygon fill="black" stroke="black" points="262.55,-111.87 269.18,-103.62 258.84,-105.93 262.55,-111.87"/>
</g>
<!-- x4&#45;&gt;h3 -->
<g id="edge27" class="edge">
<title>x4&#45;&gt;h3</title>
<path fill="none" stroke="black" d="M57.02,-431.51C64.42,-426.42 72.97,-419.91 79.75,-413 168.16,-322.85 153.02,-268.82 243.75,-181 249.01,-175.91 255.29,-171.16 261.43,-167.05"/>
<polygon fill="black" stroke="black" points="262.92,-170.24 269.52,-161.95 259.19,-164.32 262.92,-170.24"/>
</g>
<!-- x4&#45;&gt;h4 -->
<g id="edge28" class="edge">
<title>x4&#45;&gt;h4</title>
<path fill="none" stroke="black" d="M56.59,-431.05C63.9,-425.87 72.5,-419.42 79.75,-413 159.3,-342.54 162.39,-307.37 243.75,-239 249.13,-234.48 255.25,-230.05 261.18,-226.08"/>
<polygon fill="black" stroke="black" points="263.02,-229.05 269.53,-220.7 259.23,-223.17 263.02,-229.05"/>
</g>
<!-- x4&#45;&gt;h5 -->
<g id="edge29" class="edge">
<title>x4&#45;&gt;h5</title>
<path fill="none" stroke="black" d="M56.32,-430.33C90.42,-405.44 173.12,-345.43 243.75,-297 249.55,-293.02 255.84,-288.82 261.79,-284.88"/>
<polygon fill="black" stroke="black" points="263.65,-287.85 270.09,-279.43 259.81,-282 263.65,-287.85"/>
</g>
<!-- x4&#45;&gt;h6 -->
<g id="edge30" class="edge">
<title>x4&#45;&gt;h6</title>
<path fill="none" stroke="black" d="M58.17,-433.66C100.69,-413.72 208.48,-363.17 259.79,-339.11"/>
<polygon fill="black" stroke="black" points="261.18,-342.32 268.75,-334.91 258.21,-335.99 261.18,-342.32"/>
</g>
<!-- x4&#45;&gt;h7 -->
<g id="edge31" class="edge">
<title>x4&#45;&gt;h7</title>
<path fill="none" stroke="black" d="M59.38,-437.55C102.09,-427.53 206.01,-403.16 257.63,-391.06"/>
<polygon fill="black" stroke="black" points="258.27,-394.51 267.21,-388.82 256.68,-387.69 258.27,-394.51"/>
</g>
<!-- x4&#45;&gt;h8 -->
<g id="edge32" class="edge">
<title>x4&#45;&gt;h8</title>
<path fill="none" stroke="black" d="M59.79,-442C102.6,-442 205.41,-442 257.05,-442"/>
<polygon fill="black" stroke="black" points="256.92,-445.5 266.92,-442 256.92,-438.5 256.92,-445.5"/>
</g>
<!-- x5 -->
<g id="node5" class="node">
<title>x5</title>
<ellipse fill="lightblue" stroke="black" cx="39.38" cy="-36" rx="20.13" ry="20.13"/>
<text text-anchor="middle" x="39.38" y="-30.95" font-family="Times,serif" font-size="14.00">x5</text>
</g>
<!-- x5&#45;&gt;h1 -->
<g id="edge33" class="edge">
<title>x5&#45;&gt;h1</title>
<path fill="none" stroke="black" d="M59.79,-36C102.6,-36 205.41,-36 257.05,-36"/>
<polygon fill="black" stroke="black" points="256.92,-39.5 266.92,-36 256.92,-32.5 256.92,-39.5"/>
</g>
<!-- x5&#45;&gt;h2 -->
<g id="edge34" class="edge">
<title>x5&#45;&gt;h2</title>
<path fill="none" stroke="black" d="M59.38,-40.45C102.09,-50.47 206.01,-74.84 257.63,-86.94"/>
<polygon fill="black" stroke="black" points="256.68,-90.31 267.21,-89.18 258.27,-83.49 256.68,-90.31"/>
</g>
<!-- x5&#45;&gt;h3 -->
<g id="edge35" class="edge">
<title>x5&#45;&gt;h3</title>
<path fill="none" stroke="black" d="M58.17,-44.34C100.69,-64.28 208.48,-114.83 259.79,-138.89"/>
<polygon fill="black" stroke="black" points="258.21,-142.01 268.75,-143.09 261.18,-135.68 258.21,-142.01"/>
</g>
<!-- x5&#45;&gt;h4 -->
<g id="edge36" class="edge">
<title>x5&#45;&gt;h4</title>
<path fill="none" stroke="black" d="M56.32,-47.67C90.42,-72.56 173.12,-132.57 243.75,-181 249.55,-184.98 255.84,-189.18 261.79,-193.12"/>
<polygon fill="black" stroke="black" points="259.81,-196 270.09,-198.57 263.65,-190.15 259.81,-196"/>
</g>
<!-- x5&#45;&gt;h5 -->
<g id="edge37" class="edge">
<title>x5&#45;&gt;h5</title>
<path fill="none" stroke="black" d="M56.59,-46.95C63.9,-52.13 72.5,-58.58 79.75,-65 159.3,-135.46 162.39,-170.63 243.75,-239 249.13,-243.52 255.25,-247.95 261.18,-251.92"/>
<polygon fill="black" stroke="black" points="259.23,-254.83 269.53,-257.3 263.02,-248.95 259.23,-254.83"/>
</g>
<!-- x5&#45;&gt;h6 -->
<g id="edge38" class="edge">
<title>x5&#45;&gt;h6</title>
<path fill="none" stroke="black" d="M57.02,-46.49C64.42,-51.58 72.97,-58.09 79.75,-65 168.16,-155.15 153.02,-209.18 243.75,-297 249.01,-302.09 255.29,-306.84 261.43,-310.95"/>
<polygon fill="black" stroke="black" points="259.19,-313.68 269.52,-316.05 262.92,-307.76 259.19,-313.68"/>
</g>
<!-- x5&#45;&gt;h7 -->
<g id="edge39" class="edge">
<title>x5&#45;&gt;h7</title>
<path fill="none" stroke="black" d="M56.96,-45.92C64.52,-50.99 73.22,-57.63 79.75,-65 177.98,-175.8 142.67,-246.8 243.75,-355 248.75,-360.35 254.93,-365.19 261.05,-369.32"/>
<polygon fill="black" stroke="black" points="258.84,-372.07 269.18,-374.38 262.55,-366.13 258.84,-372.07"/>
</g>
<!-- x5&#45;&gt;h8 -->
<g id="edge40" class="edge">
<title>x5&#45;&gt;h8</title>
<path fill="none" stroke="black" d="M57.21,-45.71C64.82,-50.73 73.49,-57.39 79.75,-65 188.35,-197.07 131.75,-283.81 243.75,-413 248.55,-418.53 254.65,-423.44 260.77,-427.58"/>
<polygon fill="black" stroke="black" points="258.58,-430.34 268.93,-432.62 262.26,-424.38 258.58,-430.34"/>
</g>
<!-- x6 -->
<g id="node6" class="node">
<title>x6</title>
<ellipse fill="lightblue" stroke="black" cx="39.38" cy="-94" rx="20.13" ry="20.13"/>
<text text-anchor="middle" x="39.38" y="-88.95" font-family="Times,serif" font-size="14.00">x6</text>
</g>
<!-- x6&#45;&gt;h1 -->
<g id="edge41" class="edge">
<title>x6&#45;&gt;h1</title>
<path fill="none" stroke="black" d="M59.38,-89.55C102.09,-79.53 206.01,-55.16 257.63,-43.06"/>
<polygon fill="black" stroke="black" points="258.27,-46.51 267.21,-40.82 256.68,-39.69 258.27,-46.51"/>
</g>
<!-- x6&#45;&gt;h2 -->
<g id="edge42" class="edge">
<title>x6&#45;&gt;h2</title>
<path fill="none" stroke="black" d="M59.79,-94C102.6,-94 205.41,-94 257.05,-94"/>
<polygon fill="black" stroke="black" points="256.92,-97.5 266.92,-94 256.92,-90.5 256.92,-97.5"/>
</g>
<!-- x6&#45;&gt;h3 -->
<g id="edge43" class="edge">
<title>x6&#45;&gt;h3</title>
<path fill="none" stroke="black" d="M59.38,-98.45C102.09,-108.47 206.01,-132.84 257.63,-144.94"/>
<polygon fill="black" stroke="black" points="256.68,-148.31 267.21,-147.18 258.27,-141.49 256.68,-148.31"/>
</g>
<!-- x6&#45;&gt;h4 -->
<g id="edge44" class="edge">
<title>x6&#45;&gt;h4</title>
<path fill="none" stroke="black" d="M58.17,-102.34C100.69,-122.28 208.48,-172.83 259.79,-196.89"/>
<polygon fill="black" stroke="black" points="258.21,-200.01 268.75,-201.09 261.18,-193.68 258.21,-200.01"/>
</g>
<!-- x6&#45;&gt;h5 -->
<g id="edge45" class="edge">
<title>x6&#45;&gt;h5</title>
<path fill="none" stroke="black" d="M56.32,-105.67C90.42,-130.56 173.12,-190.57 243.75,-239 249.55,-242.98 255.84,-247.18 261.79,-251.12"/>
<polygon fill="black" stroke="black" points="259.81,-254 270.09,-256.57 263.65,-248.15 259.81,-254"/>
</g>
<!-- x6&#45;&gt;h6 -->
<g id="edge46" class="edge">
<title>x6&#45;&gt;h6</title>
<path fill="none" stroke="black" d="M56.59,-104.95C63.9,-110.13 72.5,-116.58 79.75,-123 159.3,-193.46 162.39,-228.63 243.75,-297 249.13,-301.52 255.25,-305.95 261.18,-309.92"/>
<polygon fill="black" stroke="black" points="259.23,-312.83 269.53,-315.3 263.02,-306.95 259.23,-312.83"/>
</g>
<!-- x6&#45;&gt;h7 -->
<g id="edge47" class="edge">
<title>x6&#45;&gt;h7</title>
<path fill="none" stroke="black" d="M57.02,-104.49C64.42,-109.58 72.97,-116.09 79.75,-123 168.16,-213.15 153.02,-267.18 243.75,-355 249.01,-360.09 255.29,-364.84 261.43,-368.95"/>
<polygon fill="black" stroke="black" points="259.19,-371.68 269.52,-374.05 262.92,-365.76 259.19,-371.68"/>
</g>
<!-- x6&#45;&gt;h8 -->
<g id="edge48" class="edge">
<title>x6&#45;&gt;h8</title>
<path fill="none" stroke="black" d="M56.96,-103.92C64.52,-108.99 73.22,-115.63 79.75,-123 177.98,-233.8 142.67,-304.8 243.75,-413 248.75,-418.35 254.93,-423.19 261.05,-427.32"/>
<polygon fill="black" stroke="black" points="258.84,-430.07 269.18,-432.38 262.55,-424.13 258.84,-430.07"/>
</g>
<!-- x7 -->
<g id="node7" class="node">
<title>x7</title>
<ellipse fill="lightblue" stroke="black" cx="39.38" cy="-152" rx="20.13" ry="20.13"/>
<text text-anchor="middle" x="39.38" y="-146.95" font-family="Times,serif" font-size="14.00">x7</text>
</g>
<!-- x7&#45;&gt;h1 -->
<g id="edge49" class="edge">
<title>x7&#45;&gt;h1</title>
<path fill="none" stroke="black" d="M58.17,-143.66C100.69,-123.72 208.48,-73.17 259.79,-49.11"/>
<polygon fill="black" stroke="black" points="261.18,-52.32 268.75,-44.91 258.21,-45.99 261.18,-52.32"/>
</g>
<!-- x7&#45;&gt;h2 -->
<g id="edge50" class="edge">
<title>x7&#45;&gt;h2</title>
<path fill="none" stroke="black" d="M59.38,-147.55C102.09,-137.53 206.01,-113.16 257.63,-101.06"/>
<polygon fill="black" stroke="black" points="258.27,-104.51 267.21,-98.82 256.68,-97.69 258.27,-104.51"/>
</g>
<!-- x7&#45;&gt;h3 -->
<g id="edge51" class="edge">
<title>x7&#45;&gt;h3</title>
<path fill="none" stroke="black" d="M59.79,-152C102.6,-152 205.41,-152 257.05,-152"/>
<polygon fill="black" stroke="black" points="256.92,-155.5 266.92,-152 256.92,-148.5 256.92,-155.5"/>
</g>
<!-- x7&#45;&gt;h4 -->
<g id="edge52" class="edge">
<title>x7&#45;&gt;h4</title>
<path fill="none" stroke="black" d="M59.38,-156.45C102.09,-166.47 206.01,-190.84 257.63,-202.94"/>
<polygon fill="black" stroke="black" points="256.68,-206.31 267.21,-205.18 258.27,-199.49 256.68,-206.31"/>
</g>
<!-- x7&#45;&gt;h5 -->
<g id="edge53" class="edge">
<title>x7&#45;&gt;h5</title>
<path fill="none" stroke="black" d="M58.17,-160.34C100.69,-180.28 208.48,-230.83 259.79,-254.89"/>
<polygon fill="black" stroke="black" points="258.21,-258.01 268.75,-259.09 261.18,-251.68 258.21,-258.01"/>
</g>
<!-- x7&#45;&gt;h6 -->
<g id="edge54" class="edge">
<title>x7&#45;&gt;h6</title>
<path fill="none" stroke="black" d="M56.32,-163.67C90.42,-188.56 173.12,-248.57 243.75,-297 249.55,-300.98 255.84,-305.18 261.79,-309.12"/>
<polygon fill="black" stroke="black" points="259.81,-312 270.09,-314.57 263.65,-306.15 259.81,-312"/>
</g>
<!-- x7&#45;&gt;h7 -->
<g id="edge55" class="edge">
<title>x7&#45;&gt;h7</title>
<path fill="none" stroke="black" d="M56.59,-162.95C63.9,-168.13 72.5,-174.58 79.75,-181 159.3,-251.46 162.39,-286.63 243.75,-355 249.13,-359.52 255.25,-363.95 261.18,-367.92"/>
<polygon fill="black" stroke="black" points="259.23,-370.83 269.53,-373.3 263.02,-364.95 259.23,-370.83"/>
</g>
<!-- x7&#45;&gt;h8 -->
<g id="edge56" class="edge">
<title>x7&#45;&gt;h8</title>
<path fill="none" stroke="black" d="M57.02,-162.49C64.42,-167.58 72.97,-174.09 79.75,-181 168.16,-271.15 153.02,-325.18 243.75,-413 249.01,-418.09 255.29,-422.84 261.43,-426.95"/>
<polygon fill="black" stroke="black" points="259.19,-429.68 269.52,-432.05 262.92,-423.76 259.19,-429.68"/>
</g>
<!-- x8 -->
<g id="node8" class="node">
<title>x8</title>
<ellipse fill="lightblue" stroke="black" cx="39.38" cy="-210" rx="20.13" ry="20.13"/>
<text text-anchor="middle" x="39.38" y="-204.95" font-family="Times,serif" font-size="14.00">x8</text>
</g>
<!-- x8&#45;&gt;h1 -->
<g id="edge57" class="edge">
<title>x8&#45;&gt;h1</title>
<path fill="none" stroke="black" d="M56.32,-198.33C90.42,-173.44 173.12,-113.43 243.75,-65 249.55,-61.02 255.84,-56.82 261.79,-52.88"/>
<polygon fill="black" stroke="black" points="263.65,-55.85 270.09,-47.43 259.81,-50 263.65,-55.85"/>
</g>
<!-- x8&#45;&gt;h2 -->
<g id="edge58" class="edge">
<title>x8&#45;&gt;h2</title>
<path fill="none" stroke="black" d="M58.17,-201.66C100.69,-181.72 208.48,-131.17 259.79,-107.11"/>
<polygon fill="black" stroke="black" points="261.18,-110.32 268.75,-102.91 258.21,-103.99 261.18,-110.32"/>
</g>
<!-- x8&#45;&gt;h3 -->
<g id="edge59" class="edge">
<title>x8&#45;&gt;h3</title>
<path fill="none" stroke="black" d="M59.38,-205.55C102.09,-195.53 206.01,-171.16 257.63,-159.06"/>
<polygon fill="black" stroke="black" points="258.27,-162.51 267.21,-156.82 256.68,-155.69 258.27,-162.51"/>
</g>
<!-- x8&#45;&gt;h4 -->
<g id="edge60" class="edge">
<title>x8&#45;&gt;h4</title>
<path fill="none" stroke="black" d="M59.79,-210C102.6,-210 205.41,-210 257.05,-210"/>
<polygon fill="black" stroke="black" points="256.92,-213.5 266.92,-210 256.92,-206.5 256.92,-213.5"/>
</g>
<!-- x8&#45;&gt;h5 -->
<g id="edge61" class="edge">
<title>x8&#45;&gt;h5</title>
<path fill="none" stroke="black" d="M59.38,-214.45C102.09,-224.47 206.01,-248.84 257.63,-260.94"/>
<polygon fill="black" stroke="black" points="256.68,-264.31 267.21,-263.18 258.27,-257.49 256.68,-264.31"/>
</g>
<!-- x8&#45;&gt;h6 -->
<g id="edge62" class="edge">
<title>x8&#45;&gt;h6</title>
<path fill="none" stroke="black" d="M58.17,-218.34C100.69,-238.28 208.48,-288.83 259.79,-312.89"/>
<polygon fill="black" stroke="black" points="258.21,-316.01 268.75,-317.09 261.18,-309.68 258.21,-316.01"/>
</g>
<!-- x8&#45;&gt;h7 -->
<g id="edge63" class="edge">
<title>x8&#45;&gt;h7</title>
<path fill="none" stroke="black" d="M56.32,-221.67C90.42,-246.56 173.12,-306.57 243.75,-355 249.55,-358.98 255.84,-363.18 261.79,-367.12"/>
<polygon fill="black" stroke="black" points="259.81,-370 270.09,-372.57 263.65,-364.15 259.81,-370"/>
</g>
<!-- x8&#45;&gt;h8 -->
<g id="edge64" class="edge">
<title>x8&#45;&gt;h8</title>
<path fill="none" stroke="black" d="M56.59,-220.95C63.9,-226.13 72.5,-232.58 79.75,-239 159.3,-309.46 162.39,-344.63 243.75,-413 249.13,-417.52 255.25,-421.95 261.18,-425.92"/>
<polygon fill="black" stroke="black" points="259.23,-428.83 269.53,-431.3 263.02,-422.95 259.23,-428.83"/>
</g>
<!-- y1 -->
<g id="node17" class="node">
<title>y1</title>
<ellipse fill="lightcoral" stroke="black" cx="542.63" cy="-152" rx="20.13" ry="20.13"/>
<text text-anchor="middle" x="542.63" y="-146.95" font-family="Times,serif" font-size="14.00">y1</text>
</g>
<!-- h1&#45;&gt;y1 -->
<g id="edge65" class="edge">
<title>h1&#45;&gt;y1</title>
<path fill="none" stroke="black" d="M307.46,-44.16C350.64,-64.04 461.58,-115.14 513.74,-139.16"/>
<polygon fill="black" stroke="black" points="512.01,-142.21 522.56,-143.22 514.94,-135.86 512.01,-142.21"/>
</g>
<!-- y2 -->
<g id="node18" class="node">
<title>y2</title>
<ellipse fill="lightcoral" stroke="black" cx="542.63" cy="-210" rx="20.13" ry="20.13"/>
<text text-anchor="middle" x="542.63" y="-204.95" font-family="Times,serif" font-size="14.00">y2</text>
</g>
<!-- h1&#45;&gt;y2 -->
<g id="edge66" class="edge">
<title>h1&#45;&gt;y2</title>
<path fill="none" stroke="black" d="M306.11,-46.3C314.69,-51.77 325.35,-58.65 334.75,-65 408.73,-114.97 425.33,-130.21 498.75,-181 504.34,-184.86 510.36,-188.98 516.08,-192.85"/>
<polygon fill="black" stroke="black" points="513.78,-195.52 524.03,-198.22 517.7,-189.72 513.78,-195.52"/>
</g>
<!-- y3 -->
<g id="node19" class="node">
<title>y3</title>
<ellipse fill="lightcoral" stroke="black" cx="542.63" cy="-268" rx="20.13" ry="20.13"/>
<text text-anchor="middle" x="542.63" y="-262.95" font-family="Times,serif" font-size="14.00">y3</text>
</g>
<!-- h1&#45;&gt;y3 -->
<g id="edge67" class="edge">
<title>h1&#45;&gt;y3</title>
<path fill="none" stroke="black" d="M306.66,-45.56C315.4,-50.82 326.03,-57.75 334.75,-65 416.46,-132.95 417.8,-170.15 498.75,-239 503.92,-243.4 509.78,-247.73 515.47,-251.65"/>
<polygon fill="black" stroke="black" points="513.19,-254.34 523.46,-256.96 517.07,-248.51 513.19,-254.34"/>
</g>
<!-- y4 -->
<g id="node20" class="node">
<title>y4</title>
<ellipse fill="lightcoral" stroke="black" cx="542.63" cy="-326" rx="20.13" ry="20.13"/>
<text text-anchor="middle" x="542.63" y="-320.95" font-family="Times,serif" font-size="14.00">y4</text>
</g>
<!-- h1&#45;&gt;y4 -->
<g id="edge68" class="edge">
<title>h1&#45;&gt;y4</title>
<path fill="none" stroke="black" d="M307.1,-45.07C315.96,-50.2 326.56,-57.16 334.75,-65 425.93,-152.35 408.55,-208.64 498.75,-297 503.69,-301.83 509.52,-306.38 515.28,-310.38"/>
<polygon fill="black" stroke="black" points="513.15,-313.17 523.44,-315.7 516.98,-307.31 513.15,-313.17"/>
</g>
<!-- h2&#45;&gt;y1 -->
<g id="edge69" class="edge">
<title>h2&#45;&gt;y1</title>
<path fill="none" stroke="black" d="M308.68,-98.36C352.08,-108.35 459.03,-132.98 511.54,-145.07"/>
<polygon fill="black" stroke="black" points="510.47,-148.42 521,-147.25 512.04,-141.6 510.47,-148.42"/>
</g>
<!-- h2&#45;&gt;y2 -->
<g id="edge70" class="edge">
<title>h2&#45;&gt;y2</title>
<path fill="none" stroke="black" d="M307.46,-102.16C350.64,-122.04 461.58,-173.14 513.74,-197.16"/>
<polygon fill="black" stroke="black" points="512.01,-200.21 522.56,-201.22 514.94,-193.86 512.01,-200.21"/>
</g>
<!-- h2&#45;&gt;y3 -->
<g id="edge71" class="edge">
<title>h2&#45;&gt;y3</title>
<path fill="none" stroke="black" d="M306.11,-104.3C314.69,-109.77 325.35,-116.65 334.75,-123 408.73,-172.97 425.33,-188.21 498.75,-239 504.34,-242.86 510.36,-246.98 516.08,-250.85"/>
<polygon fill="black" stroke="black" points="513.78,-253.52 524.03,-256.22 517.7,-247.72 513.78,-253.52"/>
</g>
<!-- h2&#45;&gt;y4 -->
<g id="edge72" class="edge">
<title>h2&#45;&gt;y4</title>
<path fill="none" stroke="black" d="M306.66,-103.56C315.4,-108.82 326.03,-115.75 334.75,-123 416.46,-190.95 417.8,-228.15 498.75,-297 503.92,-301.4 509.78,-305.73 515.47,-309.65"/>
<polygon fill="black" stroke="black" points="513.19,-312.34 523.46,-314.96 517.07,-306.51 513.19,-312.34"/>
</g>
<!-- h3&#45;&gt;y1 -->
<g id="edge73" class="edge">
<title>h3&#45;&gt;y1</title>
<path fill="none" stroke="black" d="M309.1,-152C352.59,-152 458.4,-152 510.96,-152"/>
<polygon fill="black" stroke="black" points="510.7,-155.5 520.7,-152 510.7,-148.5 510.7,-155.5"/>
</g>
<!-- h3&#45;&gt;y2 -->
<g id="edge74" class="edge">
<title>h3&#45;&gt;y2</title>
<path fill="none" stroke="black" d="M308.68,-156.36C352.08,-166.35 459.03,-190.98 511.54,-203.07"/>
<polygon fill="black" stroke="black" points="510.47,-206.42 521,-205.25 512.04,-199.6 510.47,-206.42"/>
</g>
<!-- h3&#45;&gt;y3 -->
<g id="edge75" class="edge">
<title>h3&#45;&gt;y3</title>
<path fill="none" stroke="black" d="M307.46,-160.16C350.64,-180.04 461.58,-231.14 513.74,-255.16"/>
<polygon fill="black" stroke="black" points="512.01,-258.21 522.56,-259.22 514.94,-251.86 512.01,-258.21"/>
</g>
<!-- h3&#45;&gt;y4 -->
<g id="edge76" class="edge">
<title>h3&#45;&gt;y4</title>
<path fill="none" stroke="black" d="M306.11,-162.3C314.69,-167.77 325.35,-174.65 334.75,-181 408.73,-230.97 425.33,-246.21 498.75,-297 504.34,-300.86 510.36,-304.98 516.08,-308.85"/>
<polygon fill="black" stroke="black" points="513.78,-311.52 524.03,-314.22 517.7,-305.72 513.78,-311.52"/>
</g>
<!-- h4&#45;&gt;y1 -->
<g id="edge77" class="edge">
<title>h4&#45;&gt;y1</title>
<path fill="none" stroke="black" d="M308.68,-205.64C352.08,-195.65 459.03,-171.02 511.54,-158.93"/>
<polygon fill="black" stroke="black" points="512.04,-162.4 521,-156.75 510.47,-155.58 512.04,-162.4"/>
</g>
<!-- h4&#45;&gt;y2 -->
<g id="edge78" class="edge">
<title>h4&#45;&gt;y2</title>
<path fill="none" stroke="black" d="M309.1,-210C352.59,-210 458.4,-210 510.96,-210"/>
<polygon fill="black" stroke="black" points="510.7,-213.5 520.7,-210 510.7,-206.5 510.7,-213.5"/>
</g>
<!-- h4&#45;&gt;y3 -->
<g id="edge79" class="edge">
<title>h4&#45;&gt;y3</title>
<path fill="none" stroke="black" d="M308.68,-214.36C352.08,-224.35 459.03,-248.98 511.54,-261.07"/>
<polygon fill="black" stroke="black" points="510.47,-264.42 521,-263.25 512.04,-257.6 510.47,-264.42"/>
</g>
<!-- h4&#45;&gt;y4 -->
<g id="edge80" class="edge">
<title>h4&#45;&gt;y4</title>
<path fill="none" stroke="black" d="M307.46,-218.16C350.64,-238.04 461.58,-289.14 513.74,-313.16"/>
<polygon fill="black" stroke="black" points="512.01,-316.21 522.56,-317.22 514.94,-309.86 512.01,-316.21"/>
</g>
<!-- h5&#45;&gt;y1 -->
<g id="edge81" class="edge">
<title>h5&#45;&gt;y1</title>
<path fill="none" stroke="black" d="M307.46,-259.84C350.64,-239.96 461.58,-188.86 513.74,-164.84"/>
<polygon fill="black" stroke="black" points="514.94,-168.14 522.56,-160.78 512.01,-161.79 514.94,-168.14"/>
</g>
<!-- h5&#45;&gt;y2 -->
<g id="edge82" class="edge">
<title>h5&#45;&gt;y2</title>
<path fill="none" stroke="black" d="M308.68,-263.64C352.08,-253.65 459.03,-229.02 511.54,-216.93"/>
<polygon fill="black" stroke="black" points="512.04,-220.4 521,-214.75 510.47,-213.58 512.04,-220.4"/>
</g>
<!-- h5&#45;&gt;y3 -->
<g id="edge83" class="edge">
<title>h5&#45;&gt;y3</title>
<path fill="none" stroke="black" d="M309.1,-268C352.59,-268 458.4,-268 510.96,-268"/>
<polygon fill="black" stroke="black" points="510.7,-271.5 520.7,-268 510.7,-264.5 510.7,-271.5"/>
</g>
<!-- h5&#45;&gt;y4 -->
<g id="edge84" class="edge">
<title>h5&#45;&gt;y4</title>
<path fill="none" stroke="black" d="M308.68,-272.36C352.08,-282.35 459.03,-306.98 511.54,-319.07"/>
<polygon fill="black" stroke="black" points="510.47,-322.42 521,-321.25 512.04,-315.6 510.47,-322.42"/>
</g>
<!-- h6&#45;&gt;y1 -->
<g id="edge85" class="edge">
<title>h6&#45;&gt;y1</title>
<path fill="none" stroke="black" d="M306.11,-315.7C314.69,-310.23 325.35,-303.35 334.75,-297 408.73,-247.03 425.33,-231.79 498.75,-181 504.34,-177.14 510.36,-173.02 516.08,-169.15"/>
<polygon fill="black" stroke="black" points="517.7,-172.28 524.03,-163.78 513.78,-166.48 517.7,-172.28"/>
</g>
<!-- h6&#45;&gt;y2 -->
<g id="edge86" class="edge">
<title>h6&#45;&gt;y2</title>
<path fill="none" stroke="black" d="M307.46,-317.84C350.64,-297.96 461.58,-246.86 513.74,-222.84"/>
<polygon fill="black" stroke="black" points="514.94,-226.14 522.56,-218.78 512.01,-219.79 514.94,-226.14"/>
</g>
<!-- h6&#45;&gt;y3 -->
<g id="edge87" class="edge">
<title>h6&#45;&gt;y3</title>
<path fill="none" stroke="black" d="M308.68,-321.64C352.08,-311.65 459.03,-287.02 511.54,-274.93"/>
<polygon fill="black" stroke="black" points="512.04,-278.4 521,-272.75 510.47,-271.58 512.04,-278.4"/>
</g>
<!-- h6&#45;&gt;y4 -->
<g id="edge88" class="edge">
<title>h6&#45;&gt;y4</title>
<path fill="none" stroke="black" d="M309.1,-326C352.59,-326 458.4,-326 510.96,-326"/>
<polygon fill="black" stroke="black" points="510.7,-329.5 520.7,-326 510.7,-322.5 510.7,-329.5"/>
</g>
<!-- h7&#45;&gt;y1 -->
<g id="edge89" class="edge">
<title>h7&#45;&gt;y1</title>
<path fill="none" stroke="black" d="M306.66,-374.44C315.4,-369.18 326.03,-362.25 334.75,-355 416.46,-287.05 417.8,-249.85 498.75,-181 503.92,-176.6 509.78,-172.27 515.47,-168.35"/>
<polygon fill="black" stroke="black" points="517.07,-171.49 523.46,-163.04 513.19,-165.66 517.07,-171.49"/>
</g>
<!-- h7&#45;&gt;y2 -->
<g id="edge90" class="edge">
<title>h7&#45;&gt;y2</title>
<path fill="none" stroke="black" d="M306.11,-373.7C314.69,-368.23 325.35,-361.35 334.75,-355 408.73,-305.03 425.33,-289.79 498.75,-239 504.34,-235.14 510.36,-231.02 516.08,-227.15"/>
<polygon fill="black" stroke="black" points="517.7,-230.28 524.03,-221.78 513.78,-224.48 517.7,-230.28"/>
</g>
<!-- h7&#45;&gt;y3 -->
<g id="edge91" class="edge">
<title>h7&#45;&gt;y3</title>
<path fill="none" stroke="black" d="M307.46,-375.84C350.64,-355.96 461.58,-304.86 513.74,-280.84"/>
<polygon fill="black" stroke="black" points="514.94,-284.14 522.56,-276.78 512.01,-277.79 514.94,-284.14"/>
</g>
<!-- h7&#45;&gt;y4 -->
<g id="edge92" class="edge">
<title>h7&#45;&gt;y4</title>
<path fill="none" stroke="black" d="M308.68,-379.64C352.08,-369.65 459.03,-345.02 511.54,-332.93"/>
<polygon fill="black" stroke="black" points="512.04,-336.4 521,-330.75 510.47,-329.58 512.04,-336.4"/>
</g>
<!-- h8&#45;&gt;y1 -->
<g id="edge93" class="edge">
<title>h8&#45;&gt;y1</title>
<path fill="none" stroke="black" d="M307.1,-432.93C315.96,-427.8 326.56,-420.84 334.75,-413 425.93,-325.65 408.55,-269.36 498.75,-181 503.69,-176.17 509.52,-171.62 515.28,-167.62"/>
<polygon fill="black" stroke="black" points="516.98,-170.69 523.44,-162.3 513.15,-164.83 516.98,-170.69"/>
</g>
<!-- h8&#45;&gt;y2 -->
<g id="edge94" class="edge">
<title>h8&#45;&gt;y2</title>
<path fill="none" stroke="black" d="M306.66,-432.44C315.4,-427.18 326.03,-420.25 334.75,-413 416.46,-345.05 417.8,-307.85 498.75,-239 503.92,-234.6 509.78,-230.27 515.47,-226.35"/>
<polygon fill="black" stroke="black" points="517.07,-229.49 523.46,-221.04 513.19,-223.66 517.07,-229.49"/>
</g>
<!-- h8&#45;&gt;y3 -->
<g id="edge95" class="edge">
<title>h8&#45;&gt;y3</title>
<path fill="none" stroke="black" d="M306.11,-431.7C314.69,-426.23 325.35,-419.35 334.75,-413 408.73,-363.03 425.33,-347.79 498.75,-297 504.34,-293.14 510.36,-289.02 516.08,-285.15"/>
<polygon fill="black" stroke="black" points="517.7,-288.28 524.03,-279.78 513.78,-282.48 517.7,-288.28"/>
</g>
<!-- h8&#45;&gt;y4 -->
<g id="edge96" class="edge">
<title>h8&#45;&gt;y4</title>
<path fill="none" stroke="black" d="M307.46,-433.84C350.64,-413.96 461.58,-362.86 513.74,-338.84"/>
<polygon fill="black" stroke="black" points="514.94,-342.14 522.56,-334.78 512.01,-335.79 514.94,-342.14"/>
</g>
</g>
</svg>
