<?xml version="1.0" encoding="UTF-8" standalone="no"?>
<!DOCTYPE svg PUBLIC "-//W3C//DTD SVG 1.1//EN"
 "http://www.w3.org/Graphics/SVG/1.1/DTD/svg11.dtd">
<!-- Generated by graphviz version 12.2.0 (20241103.1931)
 -->
<!-- Pages: 1 -->
<svg width="854pt" height="654pt"
 viewBox="0.00 0.00 854.42 654.00" xmlns="http://www.w3.org/2000/svg" xmlns:xlink="http://www.w3.org/1999/xlink">
<g id="graph0" class="graph" transform="scale(1 1) rotate(0) translate(4 650)">
<polygon fill="white" stroke="none" points="-4,4 -4,-650 850.42,-650 850.42,4 -4,4"/>
<g id="clust1" class="cluster">
<title>cluster_input</title>
<polygon fill="none" stroke="black" points="5.42,-8 5.42,-638 85.17,-638 85.17,-8 5.42,-8"/>
<text text-anchor="middle" x="45.3" y="-620.7" font-family="Times,serif" font-size="14.00">Input Layer</text>
</g>
<g id="clust2" class="cluster">
<title>cluster_hidden1</title>
<polygon fill="none" stroke="black" points="177.17,-8 177.17,-638 278.67,-638 278.67,-8 177.17,-8"/>
<text text-anchor="middle" x="227.92" y="-620.7" font-family="Times,serif" font-size="14.00">Hidden Layer 1</text>
</g>
<g id="clust3" class="cluster">
<title>cluster_hidden2</title>
<polygon fill="none" stroke="black" points="370.67,-8 370.67,-638 472.17,-638 472.17,-8 370.67,-8"/>
<text text-anchor="middle" x="421.42" y="-620.7" font-family="Times,serif" font-size="14.00">Hidden Layer 2</text>
</g>
<g id="clust4" class="cluster">
<title>cluster_hidden3</title>
<polygon fill="none" stroke="black" points="564.17,-8 564.17,-638 665.67,-638 665.67,-8 564.17,-8"/>
<text text-anchor="middle" x="614.92" y="-620.7" font-family="Times,serif" font-size="14.00">Hidden Layer 3</text>
</g>
<g id="clust5" class="cluster">
<title>cluster_output</title>
<polygon fill="none" stroke="black" points="757.67,-160 757.67,-486 846.42,-486 846.42,-160 757.67,-160"/>
<text text-anchor="middle" x="802.05" y="-468.7" font-family="Times,serif" font-size="14.00">Output Layer</text>
</g>
<!-- x1 -->
<g id="node1" class="node">
<title>x1</title>
<ellipse fill="lightblue" stroke="black" cx="44.8" cy="-349" rx="28.8" ry="28.8"/>
<text text-anchor="middle" x="44.8" y="-343.95" font-family="Times,serif" font-size="14.00">x1</text>
</g>
<!-- h1_1 -->
<g id="node9" class="node">
<title>h1_1</title>
<ellipse fill="lightgreen" stroke="black" cx="227.42" cy="-45" rx="28.8" ry="28.8"/>
<text text-anchor="middle" x="227.42" y="-39.95" font-family="Times,serif" font-size="14.00">h1_1</text>
</g>
<!-- x1&#45;&gt;h1_1 -->
<g id="edge1" class="edge">
<title>x1&#45;&gt;h1_1</title>
<path fill="none" stroke="black" d="M67.56,-331.12C73.83,-325.19 80.29,-318.25 85.17,-311 146.27,-220.41 111.17,-170.08 177.17,-83 181.78,-76.93 187.58,-71.32 193.58,-66.37"/>
<polygon fill="black" stroke="black" points="195.37,-69.41 201.18,-60.55 191.11,-63.85 195.37,-69.41"/>
</g>
<!-- h1_2 -->
<g id="node10" class="node">
<title>h1_2</title>
<ellipse fill="lightgreen" stroke="black" cx="227.42" cy="-121" rx="28.8" ry="28.8"/>
<text text-anchor="middle" x="227.42" y="-115.95" font-family="Times,serif" font-size="14.00">h1_2</text>
</g>
<!-- x1&#45;&gt;h1_2 -->
<g id="edge2" class="edge">
<title>x1&#45;&gt;h1_2</title>
<path fill="none" stroke="black" d="M67.27,-330.22C73.39,-324.36 79.84,-317.68 85.17,-311 134.44,-249.29 124.58,-217.9 177.17,-159 182.2,-153.37 188.15,-147.98 194.15,-143.13"/>
<polygon fill="black" stroke="black" points="195.88,-146.22 201.67,-137.34 191.61,-140.67 195.88,-146.22"/>
</g>
<!-- h1_3 -->
<g id="node11" class="node">
<title>h1_3</title>
<ellipse fill="lightgreen" stroke="black" cx="227.42" cy="-197" rx="28.8" ry="28.8"/>
<text text-anchor="middle" x="227.42" y="-191.95" font-family="Times,serif" font-size="14.00">h1_3</text>
</g>
<!-- x1&#45;&gt;h1_3 -->
<g id="edge3" class="edge">
<title>x1&#45;&gt;h1_3</title>
<path fill="none" stroke="black" d="M66.87,-330.06C92.55,-307.12 137.45,-267.52 177.17,-235 183.01,-230.22 189.34,-225.22 195.44,-220.47"/>
<polygon fill="black" stroke="black" points="197.17,-223.56 202.95,-214.68 192.89,-218.02 197.17,-223.56"/>
</g>
<!-- h1_4 -->
<g id="node12" class="node">
<title>h1_4</title>
<ellipse fill="lightgreen" stroke="black" cx="227.42" cy="-273" rx="28.8" ry="28.8"/>
<text text-anchor="middle" x="227.42" y="-267.95" font-family="Times,serif" font-size="14.00">h1_4</text>
</g>
<!-- x1&#45;&gt;h1_4 -->
<g id="edge4" class="edge">
<title>x1&#45;&gt;h1_4</title>
<path fill="none" stroke="black" d="M71.68,-338.11C102.71,-325.06 154.91,-303.09 190,-288.33"/>
<polygon fill="black" stroke="black" points="191.05,-291.68 198.91,-284.58 188.33,-285.23 191.05,-291.68"/>
</g>
<!-- h1_5 -->
<g id="node13" class="node">
<title>h1_5</title>
<ellipse fill="lightgreen" stroke="black" cx="227.42" cy="-349" rx="28.8" ry="28.8"/>
<text text-anchor="middle" x="227.42" y="-343.95" font-family="Times,serif" font-size="14.00">h1_5</text>
</g>
<!-- x1&#45;&gt;h1_5 -->
<g id="edge5" class="edge">
<title>x1&#45;&gt;h1_5</title>
<path fill="none" stroke="black" d="M74.02,-349C104.38,-349 152.87,-349 186.99,-349"/>
<polygon fill="black" stroke="black" points="186.89,-352.5 196.89,-349 186.89,-345.5 186.89,-352.5"/>
</g>
<!-- h1_6 -->
<g id="node14" class="node">
<title>h1_6</title>
<ellipse fill="lightgreen" stroke="black" cx="227.42" cy="-425" rx="28.8" ry="28.8"/>
<text text-anchor="middle" x="227.42" y="-419.95" font-family="Times,serif" font-size="14.00">h1_6</text>
</g>
<!-- x1&#45;&gt;h1_6 -->
<g id="edge6" class="edge">
<title>x1&#45;&gt;h1_6</title>
<path fill="none" stroke="black" d="M71.68,-359.89C102.71,-372.94 154.91,-394.91 190,-409.67"/>
<polygon fill="black" stroke="black" points="188.33,-412.77 198.91,-413.42 191.05,-406.32 188.33,-412.77"/>
</g>
<!-- h1_7 -->
<g id="node15" class="node">
<title>h1_7</title>
<ellipse fill="lightgreen" stroke="black" cx="227.42" cy="-501" rx="28.8" ry="28.8"/>
<text text-anchor="middle" x="227.42" y="-495.95" font-family="Times,serif" font-size="14.00">h1_7</text>
</g>
<!-- x1&#45;&gt;h1_7 -->
<g id="edge7" class="edge">
<title>x1&#45;&gt;h1_7</title>
<path fill="none" stroke="black" d="M66.87,-367.94C92.55,-390.88 137.45,-430.48 177.17,-463 183.01,-467.78 189.34,-472.78 195.44,-477.53"/>
<polygon fill="black" stroke="black" points="192.89,-479.98 202.95,-483.32 197.17,-474.44 192.89,-479.98"/>
</g>
<!-- h1_8 -->
<g id="node16" class="node">
<title>h1_8</title>
<ellipse fill="lightgreen" stroke="black" cx="227.42" cy="-577" rx="28.8" ry="28.8"/>
<text text-anchor="middle" x="227.42" y="-571.95" font-family="Times,serif" font-size="14.00">h1_8</text>
</g>
<!-- x1&#45;&gt;h1_8 -->
<g id="edge8" class="edge">
<title>x1&#45;&gt;h1_8</title>
<path fill="none" stroke="black" d="M67.27,-367.78C73.39,-373.64 79.84,-380.32 85.17,-387 134.44,-448.71 124.58,-480.1 177.17,-539 182.2,-544.63 188.15,-550.02 194.15,-554.87"/>
<polygon fill="black" stroke="black" points="191.61,-557.33 201.67,-560.66 195.88,-551.78 191.61,-557.33"/>
</g>
<!-- x2 -->
<g id="node2" class="node">
<title>x2</title>
<ellipse fill="lightblue" stroke="black" cx="44.8" cy="-425" rx="28.8" ry="28.8"/>
<text text-anchor="middle" x="44.8" y="-419.95" font-family="Times,serif" font-size="14.00">x2</text>
</g>
<!-- x2&#45;&gt;h1_1 -->
<g id="edge9" class="edge">
<title>x2&#45;&gt;h1_1</title>
<path fill="none" stroke="black" d="M67.96,-407.38C74.25,-401.46 80.62,-394.46 85.17,-387 158.78,-266.55 97.03,-199.21 177.17,-83 181.5,-76.73 187.18,-71.03 193.14,-66.06"/>
<polygon fill="black" stroke="black" points="194.93,-69.1 200.75,-60.24 190.68,-63.54 194.93,-69.1"/>
</g>
<!-- x2&#45;&gt;h1_2 -->
<g id="edge10" class="edge">
<title>x2&#45;&gt;h1_2</title>
<path fill="none" stroke="black" d="M67.56,-407.12C73.83,-401.19 80.29,-394.25 85.17,-387 146.27,-296.41 111.17,-246.08 177.17,-159 181.78,-152.93 187.58,-147.32 193.58,-142.37"/>
<polygon fill="black" stroke="black" points="195.37,-145.41 201.18,-136.55 191.11,-139.85 195.37,-145.41"/>
</g>
<!-- x2&#45;&gt;h1_3 -->
<g id="edge11" class="edge">
<title>x2&#45;&gt;h1_3</title>
<path fill="none" stroke="black" d="M67.27,-406.22C73.39,-400.36 79.84,-393.68 85.17,-387 134.44,-325.29 124.58,-293.9 177.17,-235 182.2,-229.37 188.15,-223.98 194.15,-219.13"/>
<polygon fill="black" stroke="black" points="195.88,-222.22 201.67,-213.34 191.61,-216.67 195.88,-222.22"/>
</g>
<!-- x2&#45;&gt;h1_4 -->
<g id="edge12" class="edge">
<title>x2&#45;&gt;h1_4</title>
<path fill="none" stroke="black" d="M66.87,-406.06C92.55,-383.12 137.45,-343.52 177.17,-311 183.01,-306.22 189.34,-301.22 195.44,-296.47"/>
<polygon fill="black" stroke="black" points="197.17,-299.56 202.95,-290.68 192.89,-294.02 197.17,-299.56"/>
</g>
<!-- x2&#45;&gt;h1_5 -->
<g id="edge13" class="edge">
<title>x2&#45;&gt;h1_5</title>
<path fill="none" stroke="black" d="M71.68,-414.11C102.71,-401.06 154.91,-379.09 190,-364.33"/>
<polygon fill="black" stroke="black" points="191.05,-367.68 198.91,-360.58 188.33,-361.23 191.05,-367.68"/>
</g>
<!-- x2&#45;&gt;h1_6 -->
<g id="edge14" class="edge">
<title>x2&#45;&gt;h1_6</title>
<path fill="none" stroke="black" d="M74.02,-425C104.38,-425 152.87,-425 186.99,-425"/>
<polygon fill="black" stroke="black" points="186.89,-428.5 196.89,-425 186.89,-421.5 186.89,-428.5"/>
</g>
<!-- x2&#45;&gt;h1_7 -->
<g id="edge15" class="edge">
<title>x2&#45;&gt;h1_7</title>
<path fill="none" stroke="black" d="M71.68,-435.89C102.71,-448.94 154.91,-470.91 190,-485.67"/>
<polygon fill="black" stroke="black" points="188.33,-488.77 198.91,-489.42 191.05,-482.32 188.33,-488.77"/>
</g>
<!-- x2&#45;&gt;h1_8 -->
<g id="edge16" class="edge">
<title>x2&#45;&gt;h1_8</title>
<path fill="none" stroke="black" d="M66.87,-443.94C92.55,-466.88 137.45,-506.48 177.17,-539 183.01,-543.78 189.34,-548.78 195.44,-553.53"/>
<polygon fill="black" stroke="black" points="192.89,-555.98 202.95,-559.32 197.17,-550.44 192.89,-555.98"/>
</g>
<!-- x3 -->
<g id="node3" class="node">
<title>x3</title>
<ellipse fill="lightblue" stroke="black" cx="44.8" cy="-501" rx="28.8" ry="28.8"/>
<text text-anchor="middle" x="44.8" y="-495.95" font-family="Times,serif" font-size="14.00">x3</text>
</g>
<!-- x3&#45;&gt;h1_1 -->
<g id="edge17" class="edge">
<title>x3&#45;&gt;h1_1</title>
<path fill="none" stroke="black" d="M68.22,-483.53C74.52,-477.62 80.83,-470.58 85.17,-463 171.57,-312.23 82.59,-228.77 177.17,-83 181.36,-76.55 187.03,-70.74 193.03,-65.73"/>
<polygon fill="black" stroke="black" points="194.89,-68.72 200.73,-59.88 190.65,-63.14 194.89,-68.72"/>
</g>
<!-- x3&#45;&gt;h1_2 -->
<g id="edge18" class="edge">
<title>x3&#45;&gt;h1_2</title>
<path fill="none" stroke="black" d="M67.96,-483.38C74.25,-477.46 80.62,-470.46 85.17,-463 158.78,-342.55 97.03,-275.21 177.17,-159 181.5,-152.73 187.18,-147.03 193.14,-142.06"/>
<polygon fill="black" stroke="black" points="194.93,-145.1 200.75,-136.24 190.68,-139.54 194.93,-145.1"/>
</g>
<!-- x3&#45;&gt;h1_3 -->
<g id="edge19" class="edge">
<title>x3&#45;&gt;h1_3</title>
<path fill="none" stroke="black" d="M67.56,-483.12C73.83,-477.19 80.29,-470.25 85.17,-463 146.27,-372.41 111.17,-322.08 177.17,-235 181.78,-228.93 187.58,-223.32 193.58,-218.37"/>
<polygon fill="black" stroke="black" points="195.37,-221.41 201.18,-212.55 191.11,-215.85 195.37,-221.41"/>
</g>
<!-- x3&#45;&gt;h1_4 -->
<g id="edge20" class="edge">
<title>x3&#45;&gt;h1_4</title>
<path fill="none" stroke="black" d="M67.27,-482.22C73.39,-476.36 79.84,-469.68 85.17,-463 134.44,-401.29 124.58,-369.9 177.17,-311 182.2,-305.37 188.15,-299.98 194.15,-295.13"/>
<polygon fill="black" stroke="black" points="195.88,-298.22 201.67,-289.34 191.61,-292.67 195.88,-298.22"/>
</g>
<!-- x3&#45;&gt;h1_5 -->
<g id="edge21" class="edge">
<title>x3&#45;&gt;h1_5</title>
<path fill="none" stroke="black" d="M66.87,-482.06C92.55,-459.12 137.45,-419.52 177.17,-387 183.01,-382.22 189.34,-377.22 195.44,-372.47"/>
<polygon fill="black" stroke="black" points="197.17,-375.56 202.95,-366.68 192.89,-370.02 197.17,-375.56"/>
</g>
<!-- x3&#45;&gt;h1_6 -->
<g id="edge22" class="edge">
<title>x3&#45;&gt;h1_6</title>
<path fill="none" stroke="black" d="M71.68,-490.11C102.71,-477.06 154.91,-455.09 190,-440.33"/>
<polygon fill="black" stroke="black" points="191.05,-443.68 198.91,-436.58 188.33,-437.23 191.05,-443.68"/>
</g>
<!-- x3&#45;&gt;h1_7 -->
<g id="edge23" class="edge">
<title>x3&#45;&gt;h1_7</title>
<path fill="none" stroke="black" d="M74.02,-501C104.38,-501 152.87,-501 186.99,-501"/>
<polygon fill="black" stroke="black" points="186.89,-504.5 196.89,-501 186.89,-497.5 186.89,-504.5"/>
</g>
<!-- x3&#45;&gt;h1_8 -->
<g id="edge24" class="edge">
<title>x3&#45;&gt;h1_8</title>
<path fill="none" stroke="black" d="M71.68,-511.89C102.71,-524.94 154.91,-546.91 190,-561.67"/>
<polygon fill="black" stroke="black" points="188.33,-564.77 198.91,-565.42 191.05,-558.32 188.33,-564.77"/>
</g>
<!-- x4 -->
<g id="node4" class="node">
<title>x4</title>
<ellipse fill="lightblue" stroke="black" cx="44.8" cy="-577" rx="28.8" ry="28.8"/>
<text text-anchor="middle" x="44.8" y="-571.95" font-family="Times,serif" font-size="14.00">x4</text>
</g>
<!-- x4&#45;&gt;h1_1 -->
<g id="edge25" class="edge">
<title>x4&#45;&gt;h1_1</title>
<path fill="none" stroke="black" d="M67.99,-560.02C74.44,-554.04 80.88,-546.83 85.17,-539 184.5,-357.67 67.99,-258.57 177.17,-83 181.24,-76.47 186.85,-70.63 192.84,-65.6"/>
<polygon fill="black" stroke="black" points="194.69,-68.59 200.54,-59.75 190.46,-63.02 194.69,-68.59"/>
</g>
<!-- x4&#45;&gt;h1_2 -->
<g id="edge26" class="edge">
<title>x4&#45;&gt;h1_2</title>
<path fill="none" stroke="black" d="M68.22,-559.53C74.52,-553.62 80.83,-546.58 85.17,-539 171.57,-388.23 82.59,-304.77 177.17,-159 181.36,-152.55 187.03,-146.74 193.03,-141.73"/>
<polygon fill="black" stroke="black" points="194.89,-144.72 200.73,-135.88 190.65,-139.14 194.89,-144.72"/>
</g>
<!-- x4&#45;&gt;h1_3 -->
<g id="edge27" class="edge">
<title>x4&#45;&gt;h1_3</title>
<path fill="none" stroke="black" d="M67.96,-559.38C74.25,-553.46 80.62,-546.46 85.17,-539 158.78,-418.55 97.03,-351.21 177.17,-235 181.5,-228.73 187.18,-223.03 193.14,-218.06"/>
<polygon fill="black" stroke="black" points="194.93,-221.1 200.75,-212.24 190.68,-215.54 194.93,-221.1"/>
</g>
<!-- x4&#45;&gt;h1_4 -->
<g id="edge28" class="edge">
<title>x4&#45;&gt;h1_4</title>
<path fill="none" stroke="black" d="M67.56,-559.12C73.83,-553.19 80.29,-546.25 85.17,-539 146.27,-448.41 111.17,-398.08 177.17,-311 181.78,-304.93 187.58,-299.32 193.58,-294.37"/>
<polygon fill="black" stroke="black" points="195.37,-297.41 201.18,-288.55 191.11,-291.85 195.37,-297.41"/>
</g>
<!-- x4&#45;&gt;h1_5 -->
<g id="edge29" class="edge">
<title>x4&#45;&gt;h1_5</title>
<path fill="none" stroke="black" d="M67.27,-558.22C73.39,-552.36 79.84,-545.68 85.17,-539 134.44,-477.29 124.58,-445.9 177.17,-387 182.2,-381.37 188.15,-375.98 194.15,-371.13"/>
<polygon fill="black" stroke="black" points="195.88,-374.22 201.67,-365.34 191.61,-368.67 195.88,-374.22"/>
</g>
<!-- x4&#45;&gt;h1_6 -->
<g id="edge30" class="edge">
<title>x4&#45;&gt;h1_6</title>
<path fill="none" stroke="black" d="M66.87,-558.06C92.55,-535.12 137.45,-495.52 177.17,-463 183.01,-458.22 189.34,-453.22 195.44,-448.47"/>
<polygon fill="black" stroke="black" points="197.17,-451.56 202.95,-442.68 192.89,-446.02 197.17,-451.56"/>
</g>
<!-- x4&#45;&gt;h1_7 -->
<g id="edge31" class="edge">
<title>x4&#45;&gt;h1_7</title>
<path fill="none" stroke="black" d="M71.68,-566.11C102.71,-553.06 154.91,-531.09 190,-516.33"/>
<polygon fill="black" stroke="black" points="191.05,-519.68 198.91,-512.58 188.33,-513.23 191.05,-519.68"/>
</g>
<!-- x4&#45;&gt;h1_8 -->
<g id="edge32" class="edge">
<title>x4&#45;&gt;h1_8</title>
<path fill="none" stroke="black" d="M74.02,-577C104.38,-577 152.87,-577 186.99,-577"/>
<polygon fill="black" stroke="black" points="186.89,-580.5 196.89,-577 186.89,-573.5 186.89,-580.5"/>
</g>
<!-- x5 -->
<g id="node5" class="node">
<title>x5</title>
<ellipse fill="lightblue" stroke="black" cx="44.8" cy="-45" rx="28.8" ry="28.8"/>
<text text-anchor="middle" x="44.8" y="-39.95" font-family="Times,serif" font-size="14.00">x5</text>
</g>
<!-- x5&#45;&gt;h1_1 -->
<g id="edge33" class="edge">
<title>x5&#45;&gt;h1_1</title>
<path fill="none" stroke="black" d="M74.02,-45C104.38,-45 152.87,-45 186.99,-45"/>
<polygon fill="black" stroke="black" points="186.89,-48.5 196.89,-45 186.89,-41.5 186.89,-48.5"/>
</g>
<!-- x5&#45;&gt;h1_2 -->
<g id="edge34" class="edge">
<title>x5&#45;&gt;h1_2</title>
<path fill="none" stroke="black" d="M71.68,-55.89C102.71,-68.94 154.91,-90.91 190,-105.67"/>
<polygon fill="black" stroke="black" points="188.33,-108.77 198.91,-109.42 191.05,-102.32 188.33,-108.77"/>
</g>
<!-- x5&#45;&gt;h1_3 -->
<g id="edge35" class="edge">
<title>x5&#45;&gt;h1_3</title>
<path fill="none" stroke="black" d="M66.87,-63.94C92.55,-86.88 137.45,-126.48 177.17,-159 183.01,-163.78 189.34,-168.78 195.44,-173.53"/>
<polygon fill="black" stroke="black" points="192.89,-175.98 202.95,-179.32 197.17,-170.44 192.89,-175.98"/>
</g>
<!-- x5&#45;&gt;h1_4 -->
<g id="edge36" class="edge">
<title>x5&#45;&gt;h1_4</title>
<path fill="none" stroke="black" d="M67.27,-63.78C73.39,-69.64 79.84,-76.32 85.17,-83 134.44,-144.71 124.58,-176.1 177.17,-235 182.2,-240.63 188.15,-246.02 194.15,-250.87"/>
<polygon fill="black" stroke="black" points="191.61,-253.33 201.67,-256.66 195.88,-247.78 191.61,-253.33"/>
</g>
<!-- x5&#45;&gt;h1_5 -->
<g id="edge37" class="edge">
<title>x5&#45;&gt;h1_5</title>
<path fill="none" stroke="black" d="M67.56,-62.88C73.83,-68.81 80.29,-75.75 85.17,-83 146.27,-173.59 111.17,-223.92 177.17,-311 181.78,-317.07 187.58,-322.68 193.58,-327.63"/>
<polygon fill="black" stroke="black" points="191.11,-330.15 201.18,-333.45 195.37,-324.59 191.11,-330.15"/>
</g>
<!-- x5&#45;&gt;h1_6 -->
<g id="edge38" class="edge">
<title>x5&#45;&gt;h1_6</title>
<path fill="none" stroke="black" d="M67.96,-62.62C74.25,-68.54 80.62,-75.54 85.17,-83 158.78,-203.45 97.03,-270.79 177.17,-387 181.5,-393.27 187.18,-398.97 193.14,-403.94"/>
<polygon fill="black" stroke="black" points="190.68,-406.46 200.75,-409.76 194.93,-400.9 190.68,-406.46"/>
</g>
<!-- x5&#45;&gt;h1_7 -->
<g id="edge39" class="edge">
<title>x5&#45;&gt;h1_7</title>
<path fill="none" stroke="black" d="M68.22,-62.47C74.52,-68.38 80.83,-75.42 85.17,-83 171.57,-233.77 82.59,-317.23 177.17,-463 181.36,-469.45 187.03,-475.26 193.03,-480.27"/>
<polygon fill="black" stroke="black" points="190.65,-482.86 200.73,-486.12 194.89,-477.28 190.65,-482.86"/>
</g>
<!-- x5&#45;&gt;h1_8 -->
<g id="edge40" class="edge">
<title>x5&#45;&gt;h1_8</title>
<path fill="none" stroke="black" d="M67.99,-61.98C74.44,-67.96 80.88,-75.17 85.17,-83 184.5,-264.33 67.99,-363.43 177.17,-539 181.24,-545.53 186.85,-551.37 192.84,-556.4"/>
<polygon fill="black" stroke="black" points="190.46,-558.98 200.54,-562.25 194.69,-553.41 190.46,-558.98"/>
</g>
<!-- x6 -->
<g id="node6" class="node">
<title>x6</title>
<ellipse fill="lightblue" stroke="black" cx="44.8" cy="-121" rx="28.8" ry="28.8"/>
<text text-anchor="middle" x="44.8" y="-115.95" font-family="Times,serif" font-size="14.00">x6</text>
</g>
<!-- x6&#45;&gt;h1_1 -->
<g id="edge41" class="edge">
<title>x6&#45;&gt;h1_1</title>
<path fill="none" stroke="black" d="M71.68,-110.11C102.71,-97.06 154.91,-75.09 190,-60.33"/>
<polygon fill="black" stroke="black" points="191.05,-63.68 198.91,-56.58 188.33,-57.23 191.05,-63.68"/>
</g>
<!-- x6&#45;&gt;h1_2 -->
<g id="edge42" class="edge">
<title>x6&#45;&gt;h1_2</title>
<path fill="none" stroke="black" d="M74.02,-121C104.38,-121 152.87,-121 186.99,-121"/>
<polygon fill="black" stroke="black" points="186.89,-124.5 196.89,-121 186.89,-117.5 186.89,-124.5"/>
</g>
<!-- x6&#45;&gt;h1_3 -->
<g id="edge43" class="edge">
<title>x6&#45;&gt;h1_3</title>
<path fill="none" stroke="black" d="M71.68,-131.89C102.71,-144.94 154.91,-166.91 190,-181.67"/>
<polygon fill="black" stroke="black" points="188.33,-184.77 198.91,-185.42 191.05,-178.32 188.33,-184.77"/>
</g>
<!-- x6&#45;&gt;h1_4 -->
<g id="edge44" class="edge">
<title>x6&#45;&gt;h1_4</title>
<path fill="none" stroke="black" d="M66.87,-139.94C92.55,-162.88 137.45,-202.48 177.17,-235 183.01,-239.78 189.34,-244.78 195.44,-249.53"/>
<polygon fill="black" stroke="black" points="192.89,-251.98 202.95,-255.32 197.17,-246.44 192.89,-251.98"/>
</g>
<!-- x6&#45;&gt;h1_5 -->
<g id="edge45" class="edge">
<title>x6&#45;&gt;h1_5</title>
<path fill="none" stroke="black" d="M67.27,-139.78C73.39,-145.64 79.84,-152.32 85.17,-159 134.44,-220.71 124.58,-252.1 177.17,-311 182.2,-316.63 188.15,-322.02 194.15,-326.87"/>
<polygon fill="black" stroke="black" points="191.61,-329.33 201.67,-332.66 195.88,-323.78 191.61,-329.33"/>
</g>
<!-- x6&#45;&gt;h1_6 -->
<g id="edge46" class="edge">
<title>x6&#45;&gt;h1_6</title>
<path fill="none" stroke="black" d="M67.56,-138.88C73.83,-144.81 80.29,-151.75 85.17,-159 146.27,-249.59 111.17,-299.92 177.17,-387 181.78,-393.07 187.58,-398.68 193.58,-403.63"/>
<polygon fill="black" stroke="black" points="191.11,-406.15 201.18,-409.45 195.37,-400.59 191.11,-406.15"/>
</g>
<!-- x6&#45;&gt;h1_7 -->
<g id="edge47" class="edge">
<title>x6&#45;&gt;h1_7</title>
<path fill="none" stroke="black" d="M67.96,-138.62C74.25,-144.54 80.62,-151.54 85.17,-159 158.78,-279.45 97.03,-346.79 177.17,-463 181.5,-469.27 187.18,-474.97 193.14,-479.94"/>
<polygon fill="black" stroke="black" points="190.68,-482.46 200.75,-485.76 194.93,-476.9 190.68,-482.46"/>
</g>
<!-- x6&#45;&gt;h1_8 -->
<g id="edge48" class="edge">
<title>x6&#45;&gt;h1_8</title>
<path fill="none" stroke="black" d="M68.22,-138.47C74.52,-144.38 80.83,-151.42 85.17,-159 171.57,-309.77 82.59,-393.23 177.17,-539 181.36,-545.45 187.03,-551.26 193.03,-556.27"/>
<polygon fill="black" stroke="black" points="190.65,-558.86 200.73,-562.12 194.89,-553.28 190.65,-558.86"/>
</g>
<!-- x7 -->
<g id="node7" class="node">
<title>x7</title>
<ellipse fill="lightblue" stroke="black" cx="44.8" cy="-197" rx="28.8" ry="28.8"/>
<text text-anchor="middle" x="44.8" y="-191.95" font-family="Times,serif" font-size="14.00">x7</text>
</g>
<!-- x7&#45;&gt;h1_1 -->
<g id="edge49" class="edge">
<title>x7&#45;&gt;h1_1</title>
<path fill="none" stroke="black" d="M66.87,-178.06C92.55,-155.12 137.45,-115.52 177.17,-83 183.01,-78.22 189.34,-73.22 195.44,-68.47"/>
<polygon fill="black" stroke="black" points="197.17,-71.56 202.95,-62.68 192.89,-66.02 197.17,-71.56"/>
</g>
<!-- x7&#45;&gt;h1_2 -->
<g id="edge50" class="edge">
<title>x7&#45;&gt;h1_2</title>
<path fill="none" stroke="black" d="M71.68,-186.11C102.71,-173.06 154.91,-151.09 190,-136.33"/>
<polygon fill="black" stroke="black" points="191.05,-139.68 198.91,-132.58 188.33,-133.23 191.05,-139.68"/>
</g>
<!-- x7&#45;&gt;h1_3 -->
<g id="edge51" class="edge">
<title>x7&#45;&gt;h1_3</title>
<path fill="none" stroke="black" d="M74.02,-197C104.38,-197 152.87,-197 186.99,-197"/>
<polygon fill="black" stroke="black" points="186.89,-200.5 196.89,-197 186.89,-193.5 186.89,-200.5"/>
</g>
<!-- x7&#45;&gt;h1_4 -->
<g id="edge52" class="edge">
<title>x7&#45;&gt;h1_4</title>
<path fill="none" stroke="black" d="M71.68,-207.89C102.71,-220.94 154.91,-242.91 190,-257.67"/>
<polygon fill="black" stroke="black" points="188.33,-260.77 198.91,-261.42 191.05,-254.32 188.33,-260.77"/>
</g>
<!-- x7&#45;&gt;h1_5 -->
<g id="edge53" class="edge">
<title>x7&#45;&gt;h1_5</title>
<path fill="none" stroke="black" d="M66.87,-215.94C92.55,-238.88 137.45,-278.48 177.17,-311 183.01,-315.78 189.34,-320.78 195.44,-325.53"/>
<polygon fill="black" stroke="black" points="192.89,-327.98 202.95,-331.32 197.17,-322.44 192.89,-327.98"/>
</g>
<!-- x7&#45;&gt;h1_6 -->
<g id="edge54" class="edge">
<title>x7&#45;&gt;h1_6</title>
<path fill="none" stroke="black" d="M67.27,-215.78C73.39,-221.64 79.84,-228.32 85.17,-235 134.44,-296.71 124.58,-328.1 177.17,-387 182.2,-392.63 188.15,-398.02 194.15,-402.87"/>
<polygon fill="black" stroke="black" points="191.61,-405.33 201.67,-408.66 195.88,-399.78 191.61,-405.33"/>
</g>
<!-- x7&#45;&gt;h1_7 -->
<g id="edge55" class="edge">
<title>x7&#45;&gt;h1_7</title>
<path fill="none" stroke="black" d="M67.56,-214.88C73.83,-220.81 80.29,-227.75 85.17,-235 146.27,-325.59 111.17,-375.92 177.17,-463 181.78,-469.07 187.58,-474.68 193.58,-479.63"/>
<polygon fill="black" stroke="black" points="191.11,-482.15 201.18,-485.45 195.37,-476.59 191.11,-482.15"/>
</g>
<!-- x7&#45;&gt;h1_8 -->
<g id="edge56" class="edge">
<title>x7&#45;&gt;h1_8</title>
<path fill="none" stroke="black" d="M67.96,-214.62C74.25,-220.54 80.62,-227.54 85.17,-235 158.78,-355.45 97.03,-422.79 177.17,-539 181.5,-545.27 187.18,-550.97 193.14,-555.94"/>
<polygon fill="black" stroke="black" points="190.68,-558.46 200.75,-561.76 194.93,-552.9 190.68,-558.46"/>
</g>
<!-- x8 -->
<g id="node8" class="node">
<title>x8</title>
<ellipse fill="lightblue" stroke="black" cx="44.8" cy="-273" rx="28.8" ry="28.8"/>
<text text-anchor="middle" x="44.8" y="-267.95" font-family="Times,serif" font-size="14.00">x8</text>
</g>
<!-- x8&#45;&gt;h1_1 -->
<g id="edge57" class="edge">
<title>x8&#45;&gt;h1_1</title>
<path fill="none" stroke="black" d="M67.27,-254.22C73.39,-248.36 79.84,-241.68 85.17,-235 134.44,-173.29 124.58,-141.9 177.17,-83 182.2,-77.37 188.15,-71.98 194.15,-67.13"/>
<polygon fill="black" stroke="black" points="195.88,-70.22 201.67,-61.34 191.61,-64.67 195.88,-70.22"/>
</g>
<!-- x8&#45;&gt;h1_2 -->
<g id="edge58" class="edge">
<title>x8&#45;&gt;h1_2</title>
<path fill="none" stroke="black" d="M66.87,-254.06C92.55,-231.12 137.45,-191.52 177.17,-159 183.01,-154.22 189.34,-149.22 195.44,-144.47"/>
<polygon fill="black" stroke="black" points="197.17,-147.56 202.95,-138.68 192.89,-142.02 197.17,-147.56"/>
</g>
<!-- x8&#45;&gt;h1_3 -->
<g id="edge59" class="edge">
<title>x8&#45;&gt;h1_3</title>
<path fill="none" stroke="black" d="M71.68,-262.11C102.71,-249.06 154.91,-227.09 190,-212.33"/>
<polygon fill="black" stroke="black" points="191.05,-215.68 198.91,-208.58 188.33,-209.23 191.05,-215.68"/>
</g>
<!-- x8&#45;&gt;h1_4 -->
<g id="edge60" class="edge">
<title>x8&#45;&gt;h1_4</title>
<path fill="none" stroke="black" d="M74.02,-273C104.38,-273 152.87,-273 186.99,-273"/>
<polygon fill="black" stroke="black" points="186.89,-276.5 196.89,-273 186.89,-269.5 186.89,-276.5"/>
</g>
<!-- x8&#45;&gt;h1_5 -->
<g id="edge61" class="edge">
<title>x8&#45;&gt;h1_5</title>
<path fill="none" stroke="black" d="M71.68,-283.89C102.71,-296.94 154.91,-318.91 190,-333.67"/>
<polygon fill="black" stroke="black" points="188.33,-336.77 198.91,-337.42 191.05,-330.32 188.33,-336.77"/>
</g>
<!-- x8&#45;&gt;h1_6 -->
<g id="edge62" class="edge">
<title>x8&#45;&gt;h1_6</title>
<path fill="none" stroke="black" d="M66.87,-291.94C92.55,-314.88 137.45,-354.48 177.17,-387 183.01,-391.78 189.34,-396.78 195.44,-401.53"/>
<polygon fill="black" stroke="black" points="192.89,-403.98 202.95,-407.32 197.17,-398.44 192.89,-403.98"/>
</g>
<!-- x8&#45;&gt;h1_7 -->
<g id="edge63" class="edge">
<title>x8&#45;&gt;h1_7</title>
<path fill="none" stroke="black" d="M67.27,-291.78C73.39,-297.64 79.84,-304.32 85.17,-311 134.44,-372.71 124.58,-404.1 177.17,-463 182.2,-468.63 188.15,-474.02 194.15,-478.87"/>
<polygon fill="black" stroke="black" points="191.61,-481.33 201.67,-484.66 195.88,-475.78 191.61,-481.33"/>
</g>
<!-- x8&#45;&gt;h1_8 -->
<g id="edge64" class="edge">
<title>x8&#45;&gt;h1_8</title>
<path fill="none" stroke="black" d="M67.56,-290.88C73.83,-296.81 80.29,-303.75 85.17,-311 146.27,-401.59 111.17,-451.92 177.17,-539 181.78,-545.07 187.58,-550.68 193.58,-555.63"/>
<polygon fill="black" stroke="black" points="191.11,-558.15 201.18,-561.45 195.37,-552.59 191.11,-558.15"/>
</g>
<!-- h2_1 -->
<g id="node17" class="node">
<title>h2_1</title>
<ellipse fill="lightyellow" stroke="black" cx="420.92" cy="-45" rx="28.8" ry="28.8"/>
<text text-anchor="middle" x="420.92" y="-39.95" font-family="Times,serif" font-size="14.00">h2_1</text>
</g>
<!-- h1_1&#45;&gt;h2_1 -->
<g id="edge65" class="edge">
<title>h1_1&#45;&gt;h2_1</title>
<path fill="none" stroke="black" d="M256.68,-45C289.45,-45 343.66,-45 380.55,-45"/>
<polygon fill="black" stroke="black" points="380.35,-48.5 390.35,-45 380.35,-41.5 380.35,-48.5"/>
</g>
<!-- h2_2 -->
<g id="node18" class="node">
<title>h2_2</title>
<ellipse fill="lightyellow" stroke="black" cx="420.92" cy="-121" rx="28.8" ry="28.8"/>
<text text-anchor="middle" x="420.92" y="-115.95" font-family="Times,serif" font-size="14.00">h2_2</text>
</g>
<!-- h1_1&#45;&gt;h2_2 -->
<g id="edge66" class="edge">
<title>h1_1&#45;&gt;h2_2</title>
<path fill="none" stroke="black" d="M254.65,-55.41C287.93,-68.62 345.54,-91.48 383.19,-106.42"/>
<polygon fill="black" stroke="black" points="381.72,-109.6 392.3,-110.04 384.3,-103.1 381.72,-109.6"/>
</g>
<!-- h2_3 -->
<g id="node19" class="node">
<title>h2_3</title>
<ellipse fill="lightyellow" stroke="black" cx="420.92" cy="-197" rx="28.8" ry="28.8"/>
<text text-anchor="middle" x="420.92" y="-191.95" font-family="Times,serif" font-size="14.00">h2_3</text>
</g>
<!-- h1_1&#45;&gt;h2_3 -->
<g id="edge67" class="edge">
<title>h1_1&#45;&gt;h2_3</title>
<path fill="none" stroke="black" d="M251.1,-61.82C259.79,-68.35 269.75,-75.95 278.67,-83 320.28,-115.89 329.23,-125.91 370.67,-159 376.32,-163.51 382.39,-168.26 388.26,-172.82"/>
<polygon fill="black" stroke="black" points="385.99,-175.49 396.05,-178.83 390.27,-169.95 385.99,-175.49"/>
</g>
<!-- h2_4 -->
<g id="node20" class="node">
<title>h2_4</title>
<ellipse fill="lightyellow" stroke="black" cx="420.92" cy="-273" rx="28.8" ry="28.8"/>
<text text-anchor="middle" x="420.92" y="-267.95" font-family="Times,serif" font-size="14.00">h2_4</text>
</g>
<!-- h1_1&#45;&gt;h2_4 -->
<g id="edge68" class="edge">
<title>h1_1&#45;&gt;h2_4</title>
<path fill="none" stroke="black" d="M252.22,-60.16C261.15,-66.55 270.98,-74.47 278.67,-83 331.56,-141.64 318.08,-176.1 370.67,-235 375.7,-240.63 381.65,-246.02 387.65,-250.87"/>
<polygon fill="black" stroke="black" points="385.11,-253.33 395.17,-256.66 389.38,-247.78 385.11,-253.33"/>
</g>
<!-- h2_5 -->
<g id="node21" class="node">
<title>h2_5</title>
<ellipse fill="lightyellow" stroke="black" cx="420.92" cy="-349" rx="28.8" ry="28.8"/>
<text text-anchor="middle" x="420.92" y="-343.95" font-family="Times,serif" font-size="14.00">h2_5</text>
</g>
<!-- h1_1&#45;&gt;h2_5 -->
<g id="edge69" class="edge">
<title>h1_1&#45;&gt;h2_5</title>
<path fill="none" stroke="black" d="M252.7,-59.37C261.8,-65.7 271.63,-73.79 278.67,-83 345.1,-169.76 304.67,-223.92 370.67,-311 375.28,-317.07 381.08,-322.68 387.08,-327.63"/>
<polygon fill="black" stroke="black" points="384.61,-330.15 394.68,-333.45 388.87,-324.59 384.61,-330.15"/>
</g>
<!-- h2_6 -->
<g id="node22" class="node">
<title>h2_6</title>
<ellipse fill="lightyellow" stroke="black" cx="420.92" cy="-425" rx="28.8" ry="28.8"/>
<text text-anchor="middle" x="420.92" y="-419.95" font-family="Times,serif" font-size="14.00">h2_6</text>
</g>
<!-- h1_1&#45;&gt;h2_6 -->
<g id="edge70" class="edge">
<title>h1_1&#45;&gt;h2_6</title>
<path fill="none" stroke="black" d="M252.88,-58.88C262.11,-65.18 271.98,-73.4 278.67,-83 359.38,-198.82 290.53,-270.79 370.67,-387 375,-393.27 380.68,-398.97 386.64,-403.94"/>
<polygon fill="black" stroke="black" points="384.18,-406.46 394.25,-409.76 388.43,-400.9 384.18,-406.46"/>
</g>
<!-- h2_7 -->
<g id="node23" class="node">
<title>h2_7</title>
<ellipse fill="lightyellow" stroke="black" cx="420.92" cy="-501" rx="28.8" ry="28.8"/>
<text text-anchor="middle" x="420.92" y="-495.95" font-family="Times,serif" font-size="14.00">h2_7</text>
</g>
<!-- h1_1&#45;&gt;h2_7 -->
<g id="edge71" class="edge">
<title>h1_1&#45;&gt;h2_7</title>
<path fill="none" stroke="black" d="M253.16,-58.69C262.43,-64.97 272.26,-73.21 278.67,-83 373.97,-228.31 276.09,-317.23 370.67,-463 374.86,-469.45 380.53,-475.26 386.53,-480.27"/>
<polygon fill="black" stroke="black" points="384.15,-482.86 394.23,-486.12 388.39,-477.28 384.15,-482.86"/>
</g>
<!-- h2_8 -->
<g id="node24" class="node">
<title>h2_8</title>
<ellipse fill="lightyellow" stroke="black" cx="420.92" cy="-577" rx="28.8" ry="28.8"/>
<text text-anchor="middle" x="420.92" y="-571.95" font-family="Times,serif" font-size="14.00">h2_8</text>
</g>
<!-- h1_1&#45;&gt;h2_8 -->
<g id="edge72" class="edge">
<title>h1_1&#45;&gt;h2_8</title>
<path fill="none" stroke="black" d="M253.35,-58.56C262.65,-64.83 272.45,-73.09 278.67,-83 388.71,-258.04 261.49,-363.43 370.67,-539 374.74,-545.53 380.35,-551.37 386.34,-556.4"/>
<polygon fill="black" stroke="black" points="383.96,-558.98 394.04,-562.25 388.19,-553.41 383.96,-558.98"/>
</g>
<!-- h1_2&#45;&gt;h2_1 -->
<g id="edge73" class="edge">
<title>h1_2&#45;&gt;h2_1</title>
<path fill="none" stroke="black" d="M254.65,-110.59C287.93,-97.38 345.54,-74.52 383.19,-59.58"/>
<polygon fill="black" stroke="black" points="384.3,-62.9 392.3,-55.96 381.72,-56.4 384.3,-62.9"/>
</g>
<!-- h1_2&#45;&gt;h2_2 -->
<g id="edge74" class="edge">
<title>h1_2&#45;&gt;h2_2</title>
<path fill="none" stroke="black" d="M256.68,-121C289.45,-121 343.66,-121 380.55,-121"/>
<polygon fill="black" stroke="black" points="380.35,-124.5 390.35,-121 380.35,-117.5 380.35,-124.5"/>
</g>
<!-- h1_2&#45;&gt;h2_3 -->
<g id="edge75" class="edge">
<title>h1_2&#45;&gt;h2_3</title>
<path fill="none" stroke="black" d="M254.65,-131.41C287.93,-144.62 345.54,-167.48 383.19,-182.42"/>
<polygon fill="black" stroke="black" points="381.72,-185.6 392.3,-186.04 384.3,-179.1 381.72,-185.6"/>
</g>
<!-- h1_2&#45;&gt;h2_4 -->
<g id="edge76" class="edge">
<title>h1_2&#45;&gt;h2_4</title>
<path fill="none" stroke="black" d="M251.1,-137.82C259.79,-144.35 269.75,-151.95 278.67,-159 320.28,-191.89 329.23,-201.91 370.67,-235 376.32,-239.51 382.39,-244.26 388.26,-248.82"/>
<polygon fill="black" stroke="black" points="385.99,-251.49 396.05,-254.83 390.27,-245.95 385.99,-251.49"/>
</g>
<!-- h1_2&#45;&gt;h2_5 -->
<g id="edge77" class="edge">
<title>h1_2&#45;&gt;h2_5</title>
<path fill="none" stroke="black" d="M252.22,-136.16C261.15,-142.55 270.98,-150.47 278.67,-159 331.56,-217.64 318.08,-252.1 370.67,-311 375.7,-316.63 381.65,-322.02 387.65,-326.87"/>
<polygon fill="black" stroke="black" points="385.11,-329.33 395.17,-332.66 389.38,-323.78 385.11,-329.33"/>
</g>
<!-- h1_2&#45;&gt;h2_6 -->
<g id="edge78" class="edge">
<title>h1_2&#45;&gt;h2_6</title>
<path fill="none" stroke="black" d="M252.7,-135.37C261.8,-141.7 271.63,-149.79 278.67,-159 345.1,-245.76 304.67,-299.92 370.67,-387 375.28,-393.07 381.08,-398.68 387.08,-403.63"/>
<polygon fill="black" stroke="black" points="384.61,-406.15 394.68,-409.45 388.87,-400.59 384.61,-406.15"/>
</g>
<!-- h1_2&#45;&gt;h2_7 -->
<g id="edge79" class="edge">
<title>h1_2&#45;&gt;h2_7</title>
<path fill="none" stroke="black" d="M252.88,-134.88C262.11,-141.18 271.98,-149.4 278.67,-159 359.38,-274.82 290.53,-346.79 370.67,-463 375,-469.27 380.68,-474.97 386.64,-479.94"/>
<polygon fill="black" stroke="black" points="384.18,-482.46 394.25,-485.76 388.43,-476.9 384.18,-482.46"/>
</g>
<!-- h1_2&#45;&gt;h2_8 -->
<g id="edge80" class="edge">
<title>h1_2&#45;&gt;h2_8</title>
<path fill="none" stroke="black" d="M253.16,-134.69C262.43,-140.97 272.26,-149.21 278.67,-159 373.97,-304.31 276.09,-393.23 370.67,-539 374.86,-545.45 380.53,-551.26 386.53,-556.27"/>
<polygon fill="black" stroke="black" points="384.15,-558.86 394.23,-562.12 388.39,-553.28 384.15,-558.86"/>
</g>
<!-- h1_3&#45;&gt;h2_1 -->
<g id="edge81" class="edge">
<title>h1_3&#45;&gt;h2_1</title>
<path fill="none" stroke="black" d="M251.1,-180.18C259.79,-173.65 269.75,-166.05 278.67,-159 320.28,-126.11 329.23,-116.09 370.67,-83 376.32,-78.49 382.39,-73.74 388.26,-69.18"/>
<polygon fill="black" stroke="black" points="390.27,-72.05 396.05,-63.17 385.99,-66.51 390.27,-72.05"/>
</g>
<!-- h1_3&#45;&gt;h2_2 -->
<g id="edge82" class="edge">
<title>h1_3&#45;&gt;h2_2</title>
<path fill="none" stroke="black" d="M254.65,-186.59C287.93,-173.38 345.54,-150.52 383.19,-135.58"/>
<polygon fill="black" stroke="black" points="384.3,-138.9 392.3,-131.96 381.72,-132.4 384.3,-138.9"/>
</g>
<!-- h1_3&#45;&gt;h2_3 -->
<g id="edge83" class="edge">
<title>h1_3&#45;&gt;h2_3</title>
<path fill="none" stroke="black" d="M256.68,-197C289.45,-197 343.66,-197 380.55,-197"/>
<polygon fill="black" stroke="black" points="380.35,-200.5 390.35,-197 380.35,-193.5 380.35,-200.5"/>
</g>
<!-- h1_3&#45;&gt;h2_4 -->
<g id="edge84" class="edge">
<title>h1_3&#45;&gt;h2_4</title>
<path fill="none" stroke="black" d="M254.65,-207.41C287.93,-220.62 345.54,-243.48 383.19,-258.42"/>
<polygon fill="black" stroke="black" points="381.72,-261.6 392.3,-262.04 384.3,-255.1 381.72,-261.6"/>
</g>
<!-- h1_3&#45;&gt;h2_5 -->
<g id="edge85" class="edge">
<title>h1_3&#45;&gt;h2_5</title>
<path fill="none" stroke="black" d="M251.1,-213.82C259.79,-220.35 269.75,-227.95 278.67,-235 320.28,-267.89 329.23,-277.91 370.67,-311 376.32,-315.51 382.39,-320.26 388.26,-324.82"/>
<polygon fill="black" stroke="black" points="385.99,-327.49 396.05,-330.83 390.27,-321.95 385.99,-327.49"/>
</g>
<!-- h1_3&#45;&gt;h2_6 -->
<g id="edge86" class="edge">
<title>h1_3&#45;&gt;h2_6</title>
<path fill="none" stroke="black" d="M252.22,-212.16C261.15,-218.55 270.98,-226.47 278.67,-235 331.56,-293.64 318.08,-328.1 370.67,-387 375.7,-392.63 381.65,-398.02 387.65,-402.87"/>
<polygon fill="black" stroke="black" points="385.11,-405.33 395.17,-408.66 389.38,-399.78 385.11,-405.33"/>
</g>
<!-- h1_3&#45;&gt;h2_7 -->
<g id="edge87" class="edge">
<title>h1_3&#45;&gt;h2_7</title>
<path fill="none" stroke="black" d="M252.7,-211.37C261.8,-217.7 271.63,-225.79 278.67,-235 345.1,-321.76 304.67,-375.92 370.67,-463 375.28,-469.07 381.08,-474.68 387.08,-479.63"/>
<polygon fill="black" stroke="black" points="384.61,-482.15 394.68,-485.45 388.87,-476.59 384.61,-482.15"/>
</g>
<!-- h1_3&#45;&gt;h2_8 -->
<g id="edge88" class="edge">
<title>h1_3&#45;&gt;h2_8</title>
<path fill="none" stroke="black" d="M252.88,-210.88C262.11,-217.18 271.98,-225.4 278.67,-235 359.38,-350.82 290.53,-422.79 370.67,-539 375,-545.27 380.68,-550.97 386.64,-555.94"/>
<polygon fill="black" stroke="black" points="384.18,-558.46 394.25,-561.76 388.43,-552.9 384.18,-558.46"/>
</g>
<!-- h1_4&#45;&gt;h2_1 -->
<g id="edge89" class="edge">
<title>h1_4&#45;&gt;h2_1</title>
<path fill="none" stroke="black" d="M252.22,-257.84C261.15,-251.45 270.98,-243.53 278.67,-235 331.56,-176.36 318.08,-141.9 370.67,-83 375.7,-77.37 381.65,-71.98 387.65,-67.13"/>
<polygon fill="black" stroke="black" points="389.38,-70.22 395.17,-61.34 385.11,-64.67 389.38,-70.22"/>
</g>
<!-- h1_4&#45;&gt;h2_2 -->
<g id="edge90" class="edge">
<title>h1_4&#45;&gt;h2_2</title>
<path fill="none" stroke="black" d="M251.1,-256.18C259.79,-249.65 269.75,-242.05 278.67,-235 320.28,-202.11 329.23,-192.09 370.67,-159 376.32,-154.49 382.39,-149.74 388.26,-145.18"/>
<polygon fill="black" stroke="black" points="390.27,-148.05 396.05,-139.17 385.99,-142.51 390.27,-148.05"/>
</g>
<!-- h1_4&#45;&gt;h2_3 -->
<g id="edge91" class="edge">
<title>h1_4&#45;&gt;h2_3</title>
<path fill="none" stroke="black" d="M254.65,-262.59C287.93,-249.38 345.54,-226.52 383.19,-211.58"/>
<polygon fill="black" stroke="black" points="384.3,-214.9 392.3,-207.96 381.72,-208.4 384.3,-214.9"/>
</g>
<!-- h1_4&#45;&gt;h2_4 -->
<g id="edge92" class="edge">
<title>h1_4&#45;&gt;h2_4</title>
<path fill="none" stroke="black" d="M256.68,-273C289.45,-273 343.66,-273 380.55,-273"/>
<polygon fill="black" stroke="black" points="380.35,-276.5 390.35,-273 380.35,-269.5 380.35,-276.5"/>
</g>
<!-- h1_4&#45;&gt;h2_5 -->
<g id="edge93" class="edge">
<title>h1_4&#45;&gt;h2_5</title>
<path fill="none" stroke="black" d="M254.65,-283.41C287.93,-296.62 345.54,-319.48 383.19,-334.42"/>
<polygon fill="black" stroke="black" points="381.72,-337.6 392.3,-338.04 384.3,-331.1 381.72,-337.6"/>
</g>
<!-- h1_4&#45;&gt;h2_6 -->
<g id="edge94" class="edge">
<title>h1_4&#45;&gt;h2_6</title>
<path fill="none" stroke="black" d="M251.1,-289.82C259.79,-296.35 269.75,-303.95 278.67,-311 320.28,-343.89 329.23,-353.91 370.67,-387 376.32,-391.51 382.39,-396.26 388.26,-400.82"/>
<polygon fill="black" stroke="black" points="385.99,-403.49 396.05,-406.83 390.27,-397.95 385.99,-403.49"/>
</g>
<!-- h1_4&#45;&gt;h2_7 -->
<g id="edge95" class="edge">
<title>h1_4&#45;&gt;h2_7</title>
<path fill="none" stroke="black" d="M252.22,-288.16C261.15,-294.55 270.98,-302.47 278.67,-311 331.56,-369.64 318.08,-404.1 370.67,-463 375.7,-468.63 381.65,-474.02 387.65,-478.87"/>
<polygon fill="black" stroke="black" points="385.11,-481.33 395.17,-484.66 389.38,-475.78 385.11,-481.33"/>
</g>
<!-- h1_4&#45;&gt;h2_8 -->
<g id="edge96" class="edge">
<title>h1_4&#45;&gt;h2_8</title>
<path fill="none" stroke="black" d="M252.7,-287.37C261.8,-293.7 271.63,-301.79 278.67,-311 345.1,-397.76 304.67,-451.92 370.67,-539 375.28,-545.07 381.08,-550.68 387.08,-555.63"/>
<polygon fill="black" stroke="black" points="384.61,-558.15 394.68,-561.45 388.87,-552.59 384.61,-558.15"/>
</g>
<!-- h1_5&#45;&gt;h2_1 -->
<g id="edge97" class="edge">
<title>h1_5&#45;&gt;h2_1</title>
<path fill="none" stroke="black" d="M252.7,-334.63C261.8,-328.3 271.63,-320.21 278.67,-311 345.1,-224.24 304.67,-170.08 370.67,-83 375.28,-76.93 381.08,-71.32 387.08,-66.37"/>
<polygon fill="black" stroke="black" points="388.87,-69.41 394.68,-60.55 384.61,-63.85 388.87,-69.41"/>
</g>
<!-- h1_5&#45;&gt;h2_2 -->
<g id="edge98" class="edge">
<title>h1_5&#45;&gt;h2_2</title>
<path fill="none" stroke="black" d="M252.22,-333.84C261.15,-327.45 270.98,-319.53 278.67,-311 331.56,-252.36 318.08,-217.9 370.67,-159 375.7,-153.37 381.65,-147.98 387.65,-143.13"/>
<polygon fill="black" stroke="black" points="389.38,-146.22 395.17,-137.34 385.11,-140.67 389.38,-146.22"/>
</g>
<!-- h1_5&#45;&gt;h2_3 -->
<g id="edge99" class="edge">
<title>h1_5&#45;&gt;h2_3</title>
<path fill="none" stroke="black" d="M251.1,-332.18C259.79,-325.65 269.75,-318.05 278.67,-311 320.28,-278.11 329.23,-268.09 370.67,-235 376.32,-230.49 382.39,-225.74 388.26,-221.18"/>
<polygon fill="black" stroke="black" points="390.27,-224.05 396.05,-215.17 385.99,-218.51 390.27,-224.05"/>
</g>
<!-- h1_5&#45;&gt;h2_4 -->
<g id="edge100" class="edge">
<title>h1_5&#45;&gt;h2_4</title>
<path fill="none" stroke="black" d="M254.65,-338.59C287.93,-325.38 345.54,-302.52 383.19,-287.58"/>
<polygon fill="black" stroke="black" points="384.3,-290.9 392.3,-283.96 381.72,-284.4 384.3,-290.9"/>
</g>
<!-- h1_5&#45;&gt;h2_5 -->
<g id="edge101" class="edge">
<title>h1_5&#45;&gt;h2_5</title>
<path fill="none" stroke="black" d="M256.68,-349C289.45,-349 343.66,-349 380.55,-349"/>
<polygon fill="black" stroke="black" points="380.35,-352.5 390.35,-349 380.35,-345.5 380.35,-352.5"/>
</g>
<!-- h1_5&#45;&gt;h2_6 -->
<g id="edge102" class="edge">
<title>h1_5&#45;&gt;h2_6</title>
<path fill="none" stroke="black" d="M254.65,-359.41C287.93,-372.62 345.54,-395.48 383.19,-410.42"/>
<polygon fill="black" stroke="black" points="381.72,-413.6 392.3,-414.04 384.3,-407.1 381.72,-413.6"/>
</g>
<!-- h1_5&#45;&gt;h2_7 -->
<g id="edge103" class="edge">
<title>h1_5&#45;&gt;h2_7</title>
<path fill="none" stroke="black" d="M251.1,-365.82C259.79,-372.35 269.75,-379.95 278.67,-387 320.28,-419.89 329.23,-429.91 370.67,-463 376.32,-467.51 382.39,-472.26 388.26,-476.82"/>
<polygon fill="black" stroke="black" points="385.99,-479.49 396.05,-482.83 390.27,-473.95 385.99,-479.49"/>
</g>
<!-- h1_5&#45;&gt;h2_8 -->
<g id="edge104" class="edge">
<title>h1_5&#45;&gt;h2_8</title>
<path fill="none" stroke="black" d="M252.22,-364.16C261.15,-370.55 270.98,-378.47 278.67,-387 331.56,-445.64 318.08,-480.1 370.67,-539 375.7,-544.63 381.65,-550.02 387.65,-554.87"/>
<polygon fill="black" stroke="black" points="385.11,-557.33 395.17,-560.66 389.38,-551.78 385.11,-557.33"/>
</g>
<!-- h1_6&#45;&gt;h2_1 -->
<g id="edge105" class="edge">
<title>h1_6&#45;&gt;h2_1</title>
<path fill="none" stroke="black" d="M252.88,-411.12C262.11,-404.82 271.98,-396.6 278.67,-387 359.38,-271.18 290.53,-199.21 370.67,-83 375,-76.73 380.68,-71.03 386.64,-66.06"/>
<polygon fill="black" stroke="black" points="388.43,-69.1 394.25,-60.24 384.18,-63.54 388.43,-69.1"/>
</g>
<!-- h1_6&#45;&gt;h2_2 -->
<g id="edge106" class="edge">
<title>h1_6&#45;&gt;h2_2</title>
<path fill="none" stroke="black" d="M252.7,-410.63C261.8,-404.3 271.63,-396.21 278.67,-387 345.1,-300.24 304.67,-246.08 370.67,-159 375.28,-152.93 381.08,-147.32 387.08,-142.37"/>
<polygon fill="black" stroke="black" points="388.87,-145.41 394.68,-136.55 384.61,-139.85 388.87,-145.41"/>
</g>
<!-- h1_6&#45;&gt;h2_3 -->
<g id="edge107" class="edge">
<title>h1_6&#45;&gt;h2_3</title>
<path fill="none" stroke="black" d="M252.22,-409.84C261.15,-403.45 270.98,-395.53 278.67,-387 331.56,-328.36 318.08,-293.9 370.67,-235 375.7,-229.37 381.65,-223.98 387.65,-219.13"/>
<polygon fill="black" stroke="black" points="389.38,-222.22 395.17,-213.34 385.11,-216.67 389.38,-222.22"/>
</g>
<!-- h1_6&#45;&gt;h2_4 -->
<g id="edge108" class="edge">
<title>h1_6&#45;&gt;h2_4</title>
<path fill="none" stroke="black" d="M251.1,-408.18C259.79,-401.65 269.75,-394.05 278.67,-387 320.28,-354.11 329.23,-344.09 370.67,-311 376.32,-306.49 382.39,-301.74 388.26,-297.18"/>
<polygon fill="black" stroke="black" points="390.27,-300.05 396.05,-291.17 385.99,-294.51 390.27,-300.05"/>
</g>
<!-- h1_6&#45;&gt;h2_5 -->
<g id="edge109" class="edge">
<title>h1_6&#45;&gt;h2_5</title>
<path fill="none" stroke="black" d="M254.65,-414.59C287.93,-401.38 345.54,-378.52 383.19,-363.58"/>
<polygon fill="black" stroke="black" points="384.3,-366.9 392.3,-359.96 381.72,-360.4 384.3,-366.9"/>
</g>
<!-- h1_6&#45;&gt;h2_6 -->
<g id="edge110" class="edge">
<title>h1_6&#45;&gt;h2_6</title>
<path fill="none" stroke="black" d="M256.68,-425C289.45,-425 343.66,-425 380.55,-425"/>
<polygon fill="black" stroke="black" points="380.35,-428.5 390.35,-425 380.35,-421.5 380.35,-428.5"/>
</g>
<!-- h1_6&#45;&gt;h2_7 -->
<g id="edge111" class="edge">
<title>h1_6&#45;&gt;h2_7</title>
<path fill="none" stroke="black" d="M254.65,-435.41C287.93,-448.62 345.54,-471.48 383.19,-486.42"/>
<polygon fill="black" stroke="black" points="381.72,-489.6 392.3,-490.04 384.3,-483.1 381.72,-489.6"/>
</g>
<!-- h1_6&#45;&gt;h2_8 -->
<g id="edge112" class="edge">
<title>h1_6&#45;&gt;h2_8</title>
<path fill="none" stroke="black" d="M251.1,-441.82C259.79,-448.35 269.75,-455.95 278.67,-463 320.28,-495.89 329.23,-505.91 370.67,-539 376.32,-543.51 382.39,-548.26 388.26,-552.82"/>
<polygon fill="black" stroke="black" points="385.99,-555.49 396.05,-558.83 390.27,-549.95 385.99,-555.49"/>
</g>
<!-- h1_7&#45;&gt;h2_1 -->
<g id="edge113" class="edge">
<title>h1_7&#45;&gt;h2_1</title>
<path fill="none" stroke="black" d="M253.16,-487.31C262.43,-481.03 272.26,-472.79 278.67,-463 373.97,-317.69 276.09,-228.77 370.67,-83 374.86,-76.55 380.53,-70.74 386.53,-65.73"/>
<polygon fill="black" stroke="black" points="388.39,-68.72 394.23,-59.88 384.15,-63.14 388.39,-68.72"/>
</g>
<!-- h1_7&#45;&gt;h2_2 -->
<g id="edge114" class="edge">
<title>h1_7&#45;&gt;h2_2</title>
<path fill="none" stroke="black" d="M252.88,-487.12C262.11,-480.82 271.98,-472.6 278.67,-463 359.38,-347.18 290.53,-275.21 370.67,-159 375,-152.73 380.68,-147.03 386.64,-142.06"/>
<polygon fill="black" stroke="black" points="388.43,-145.1 394.25,-136.24 384.18,-139.54 388.43,-145.1"/>
</g>
<!-- h1_7&#45;&gt;h2_3 -->
<g id="edge115" class="edge">
<title>h1_7&#45;&gt;h2_3</title>
<path fill="none" stroke="black" d="M252.7,-486.63C261.8,-480.3 271.63,-472.21 278.67,-463 345.1,-376.24 304.67,-322.08 370.67,-235 375.28,-228.93 381.08,-223.32 387.08,-218.37"/>
<polygon fill="black" stroke="black" points="388.87,-221.41 394.68,-212.55 384.61,-215.85 388.87,-221.41"/>
</g>
<!-- h1_7&#45;&gt;h2_4 -->
<g id="edge116" class="edge">
<title>h1_7&#45;&gt;h2_4</title>
<path fill="none" stroke="black" d="M252.22,-485.84C261.15,-479.45 270.98,-471.53 278.67,-463 331.56,-404.36 318.08,-369.9 370.67,-311 375.7,-305.37 381.65,-299.98 387.65,-295.13"/>
<polygon fill="black" stroke="black" points="389.38,-298.22 395.17,-289.34 385.11,-292.67 389.38,-298.22"/>
</g>
<!-- h1_7&#45;&gt;h2_5 -->
<g id="edge117" class="edge">
<title>h1_7&#45;&gt;h2_5</title>
<path fill="none" stroke="black" d="M251.1,-484.18C259.79,-477.65 269.75,-470.05 278.67,-463 320.28,-430.11 329.23,-420.09 370.67,-387 376.32,-382.49 382.39,-377.74 388.26,-373.18"/>
<polygon fill="black" stroke="black" points="390.27,-376.05 396.05,-367.17 385.99,-370.51 390.27,-376.05"/>
</g>
<!-- h1_7&#45;&gt;h2_6 -->
<g id="edge118" class="edge">
<title>h1_7&#45;&gt;h2_6</title>
<path fill="none" stroke="black" d="M254.65,-490.59C287.93,-477.38 345.54,-454.52 383.19,-439.58"/>
<polygon fill="black" stroke="black" points="384.3,-442.9 392.3,-435.96 381.72,-436.4 384.3,-442.9"/>
</g>
<!-- h1_7&#45;&gt;h2_7 -->
<g id="edge119" class="edge">
<title>h1_7&#45;&gt;h2_7</title>
<path fill="none" stroke="black" d="M256.68,-501C289.45,-501 343.66,-501 380.55,-501"/>
<polygon fill="black" stroke="black" points="380.35,-504.5 390.35,-501 380.35,-497.5 380.35,-504.5"/>
</g>
<!-- h1_7&#45;&gt;h2_8 -->
<g id="edge120" class="edge">
<title>h1_7&#45;&gt;h2_8</title>
<path fill="none" stroke="black" d="M254.65,-511.41C287.93,-524.62 345.54,-547.48 383.19,-562.42"/>
<polygon fill="black" stroke="black" points="381.72,-565.6 392.3,-566.04 384.3,-559.1 381.72,-565.6"/>
</g>
<!-- h1_8&#45;&gt;h2_1 -->
<g id="edge121" class="edge">
<title>h1_8&#45;&gt;h2_1</title>
<path fill="none" stroke="black" d="M253.35,-563.44C262.65,-557.17 272.45,-548.91 278.67,-539 388.71,-363.96 261.49,-258.57 370.67,-83 374.74,-76.47 380.35,-70.63 386.34,-65.6"/>
<polygon fill="black" stroke="black" points="388.19,-68.59 394.04,-59.75 383.96,-63.02 388.19,-68.59"/>
</g>
<!-- h1_8&#45;&gt;h2_2 -->
<g id="edge122" class="edge">
<title>h1_8&#45;&gt;h2_2</title>
<path fill="none" stroke="black" d="M253.16,-563.31C262.43,-557.03 272.26,-548.79 278.67,-539 373.97,-393.69 276.09,-304.77 370.67,-159 374.86,-152.55 380.53,-146.74 386.53,-141.73"/>
<polygon fill="black" stroke="black" points="388.39,-144.72 394.23,-135.88 384.15,-139.14 388.39,-144.72"/>
</g>
<!-- h1_8&#45;&gt;h2_3 -->
<g id="edge123" class="edge">
<title>h1_8&#45;&gt;h2_3</title>
<path fill="none" stroke="black" d="M252.88,-563.12C262.11,-556.82 271.98,-548.6 278.67,-539 359.38,-423.18 290.53,-351.21 370.67,-235 375,-228.73 380.68,-223.03 386.64,-218.06"/>
<polygon fill="black" stroke="black" points="388.43,-221.1 394.25,-212.24 384.18,-215.54 388.43,-221.1"/>
</g>
<!-- h1_8&#45;&gt;h2_4 -->
<g id="edge124" class="edge">
<title>h1_8&#45;&gt;h2_4</title>
<path fill="none" stroke="black" d="M252.7,-562.63C261.8,-556.3 271.63,-548.21 278.67,-539 345.1,-452.24 304.67,-398.08 370.67,-311 375.28,-304.93 381.08,-299.32 387.08,-294.37"/>
<polygon fill="black" stroke="black" points="388.87,-297.41 394.68,-288.55 384.61,-291.85 388.87,-297.41"/>
</g>
<!-- h1_8&#45;&gt;h2_5 -->
<g id="edge125" class="edge">
<title>h1_8&#45;&gt;h2_5</title>
<path fill="none" stroke="black" d="M252.22,-561.84C261.15,-555.45 270.98,-547.53 278.67,-539 331.56,-480.36 318.08,-445.9 370.67,-387 375.7,-381.37 381.65,-375.98 387.65,-371.13"/>
<polygon fill="black" stroke="black" points="389.38,-374.22 395.17,-365.34 385.11,-368.67 389.38,-374.22"/>
</g>
<!-- h1_8&#45;&gt;h2_6 -->
<g id="edge126" class="edge">
<title>h1_8&#45;&gt;h2_6</title>
<path fill="none" stroke="black" d="M251.1,-560.18C259.79,-553.65 269.75,-546.05 278.67,-539 320.28,-506.11 329.23,-496.09 370.67,-463 376.32,-458.49 382.39,-453.74 388.26,-449.18"/>
<polygon fill="black" stroke="black" points="390.27,-452.05 396.05,-443.17 385.99,-446.51 390.27,-452.05"/>
</g>
<!-- h1_8&#45;&gt;h2_7 -->
<g id="edge127" class="edge">
<title>h1_8&#45;&gt;h2_7</title>
<path fill="none" stroke="black" d="M254.65,-566.59C287.93,-553.38 345.54,-530.52 383.19,-515.58"/>
<polygon fill="black" stroke="black" points="384.3,-518.9 392.3,-511.96 381.72,-512.4 384.3,-518.9"/>
</g>
<!-- h1_8&#45;&gt;h2_8 -->
<g id="edge128" class="edge">
<title>h1_8&#45;&gt;h2_8</title>
<path fill="none" stroke="black" d="M256.68,-577C289.45,-577 343.66,-577 380.55,-577"/>
<polygon fill="black" stroke="black" points="380.35,-580.5 390.35,-577 380.35,-573.5 380.35,-580.5"/>
</g>
<!-- h3_1 -->
<g id="node25" class="node">
<title>h3_1</title>
<ellipse fill="lightpink" stroke="black" cx="614.42" cy="-45" rx="28.8" ry="28.8"/>
<text text-anchor="middle" x="614.42" y="-39.95" font-family="Times,serif" font-size="14.00">h3_1</text>
</g>
<!-- h2_1&#45;&gt;h3_1 -->
<g id="edge129" class="edge">
<title>h2_1&#45;&gt;h3_1</title>
<path fill="none" stroke="black" d="M450.18,-45C482.95,-45 537.16,-45 574.05,-45"/>
<polygon fill="black" stroke="black" points="573.85,-48.5 583.85,-45 573.85,-41.5 573.85,-48.5"/>
</g>
<!-- h3_2 -->
<g id="node26" class="node">
<title>h3_2</title>
<ellipse fill="lightpink" stroke="black" cx="614.42" cy="-121" rx="28.8" ry="28.8"/>
<text text-anchor="middle" x="614.42" y="-115.95" font-family="Times,serif" font-size="14.00">h3_2</text>
</g>
<!-- h2_1&#45;&gt;h3_2 -->
<g id="edge130" class="edge">
<title>h2_1&#45;&gt;h3_2</title>
<path fill="none" stroke="black" d="M448.15,-55.41C481.43,-68.62 539.04,-91.48 576.69,-106.42"/>
<polygon fill="black" stroke="black" points="575.22,-109.6 585.8,-110.04 577.8,-103.1 575.22,-109.6"/>
</g>
<!-- h3_3 -->
<g id="node27" class="node">
<title>h3_3</title>
<ellipse fill="lightpink" stroke="black" cx="614.42" cy="-197" rx="28.8" ry="28.8"/>
<text text-anchor="middle" x="614.42" y="-191.95" font-family="Times,serif" font-size="14.00">h3_3</text>
</g>
<!-- h2_1&#45;&gt;h3_3 -->
<g id="edge131" class="edge">
<title>h2_1&#45;&gt;h3_3</title>
<path fill="none" stroke="black" d="M444.6,-61.82C453.29,-68.35 463.25,-75.95 472.17,-83 513.78,-115.89 522.73,-125.91 564.17,-159 569.82,-163.51 575.89,-168.26 581.76,-172.82"/>
<polygon fill="black" stroke="black" points="579.49,-175.49 589.55,-178.83 583.77,-169.95 579.49,-175.49"/>
</g>
<!-- h3_4 -->
<g id="node28" class="node">
<title>h3_4</title>
<ellipse fill="lightpink" stroke="black" cx="614.42" cy="-273" rx="28.8" ry="28.8"/>
<text text-anchor="middle" x="614.42" y="-267.95" font-family="Times,serif" font-size="14.00">h3_4</text>
</g>
<!-- h2_1&#45;&gt;h3_4 -->
<g id="edge132" class="edge">
<title>h2_1&#45;&gt;h3_4</title>
<path fill="none" stroke="black" d="M445.72,-60.16C454.65,-66.55 464.48,-74.47 472.17,-83 525.06,-141.64 511.58,-176.1 564.17,-235 569.2,-240.63 575.15,-246.02 581.15,-250.87"/>
<polygon fill="black" stroke="black" points="578.61,-253.33 588.67,-256.66 582.88,-247.78 578.61,-253.33"/>
</g>
<!-- h3_5 -->
<g id="node29" class="node">
<title>h3_5</title>
<ellipse fill="lightpink" stroke="black" cx="614.42" cy="-349" rx="28.8" ry="28.8"/>
<text text-anchor="middle" x="614.42" y="-343.95" font-family="Times,serif" font-size="14.00">h3_5</text>
</g>
<!-- h2_1&#45;&gt;h3_5 -->
<g id="edge133" class="edge">
<title>h2_1&#45;&gt;h3_5</title>
<path fill="none" stroke="black" d="M446.2,-59.37C455.3,-65.7 465.13,-73.79 472.17,-83 538.6,-169.76 498.17,-223.92 564.17,-311 568.78,-317.07 574.58,-322.68 580.58,-327.63"/>
<polygon fill="black" stroke="black" points="578.11,-330.15 588.18,-333.45 582.37,-324.59 578.11,-330.15"/>
</g>
<!-- h3_6 -->
<g id="node30" class="node">
<title>h3_6</title>
<ellipse fill="lightpink" stroke="black" cx="614.42" cy="-425" rx="28.8" ry="28.8"/>
<text text-anchor="middle" x="614.42" y="-419.95" font-family="Times,serif" font-size="14.00">h3_6</text>
</g>
<!-- h2_1&#45;&gt;h3_6 -->
<g id="edge134" class="edge">
<title>h2_1&#45;&gt;h3_6</title>
<path fill="none" stroke="black" d="M446.38,-58.88C455.61,-65.18 465.48,-73.4 472.17,-83 552.88,-198.82 484.03,-270.79 564.17,-387 568.5,-393.27 574.18,-398.97 580.14,-403.94"/>
<polygon fill="black" stroke="black" points="577.68,-406.46 587.75,-409.76 581.93,-400.9 577.68,-406.46"/>
</g>
<!-- h3_7 -->
<g id="node31" class="node">
<title>h3_7</title>
<ellipse fill="lightpink" stroke="black" cx="614.42" cy="-501" rx="28.8" ry="28.8"/>
<text text-anchor="middle" x="614.42" y="-495.95" font-family="Times,serif" font-size="14.00">h3_7</text>
</g>
<!-- h2_1&#45;&gt;h3_7 -->
<g id="edge135" class="edge">
<title>h2_1&#45;&gt;h3_7</title>
<path fill="none" stroke="black" d="M446.66,-58.69C455.93,-64.97 465.76,-73.21 472.17,-83 567.47,-228.31 469.59,-317.23 564.17,-463 568.36,-469.45 574.03,-475.26 580.03,-480.27"/>
<polygon fill="black" stroke="black" points="577.65,-482.86 587.73,-486.12 581.89,-477.28 577.65,-482.86"/>
</g>
<!-- h3_8 -->
<g id="node32" class="node">
<title>h3_8</title>
<ellipse fill="lightpink" stroke="black" cx="614.42" cy="-577" rx="28.8" ry="28.8"/>
<text text-anchor="middle" x="614.42" y="-571.95" font-family="Times,serif" font-size="14.00">h3_8</text>
</g>
<!-- h2_1&#45;&gt;h3_8 -->
<g id="edge136" class="edge">
<title>h2_1&#45;&gt;h3_8</title>
<path fill="none" stroke="black" d="M446.85,-58.56C456.15,-64.83 465.95,-73.09 472.17,-83 582.21,-258.04 454.99,-363.43 564.17,-539 568.24,-545.53 573.85,-551.37 579.84,-556.4"/>
<polygon fill="black" stroke="black" points="577.46,-558.98 587.54,-562.25 581.69,-553.41 577.46,-558.98"/>
</g>
<!-- h2_2&#45;&gt;h3_1 -->
<g id="edge137" class="edge">
<title>h2_2&#45;&gt;h3_1</title>
<path fill="none" stroke="black" d="M448.15,-110.59C481.43,-97.38 539.04,-74.52 576.69,-59.58"/>
<polygon fill="black" stroke="black" points="577.8,-62.9 585.8,-55.96 575.22,-56.4 577.8,-62.9"/>
</g>
<!-- h2_2&#45;&gt;h3_2 -->
<g id="edge138" class="edge">
<title>h2_2&#45;&gt;h3_2</title>
<path fill="none" stroke="black" d="M450.18,-121C482.95,-121 537.16,-121 574.05,-121"/>
<polygon fill="black" stroke="black" points="573.85,-124.5 583.85,-121 573.85,-117.5 573.85,-124.5"/>
</g>
<!-- h2_2&#45;&gt;h3_3 -->
<g id="edge139" class="edge">
<title>h2_2&#45;&gt;h3_3</title>
<path fill="none" stroke="black" d="M448.15,-131.41C481.43,-144.62 539.04,-167.48 576.69,-182.42"/>
<polygon fill="black" stroke="black" points="575.22,-185.6 585.8,-186.04 577.8,-179.1 575.22,-185.6"/>
</g>
<!-- h2_2&#45;&gt;h3_4 -->
<g id="edge140" class="edge">
<title>h2_2&#45;&gt;h3_4</title>
<path fill="none" stroke="black" d="M444.6,-137.82C453.29,-144.35 463.25,-151.95 472.17,-159 513.78,-191.89 522.73,-201.91 564.17,-235 569.82,-239.51 575.89,-244.26 581.76,-248.82"/>
<polygon fill="black" stroke="black" points="579.49,-251.49 589.55,-254.83 583.77,-245.95 579.49,-251.49"/>
</g>
<!-- h2_2&#45;&gt;h3_5 -->
<g id="edge141" class="edge">
<title>h2_2&#45;&gt;h3_5</title>
<path fill="none" stroke="black" d="M445.72,-136.16C454.65,-142.55 464.48,-150.47 472.17,-159 525.06,-217.64 511.58,-252.1 564.17,-311 569.2,-316.63 575.15,-322.02 581.15,-326.87"/>
<polygon fill="black" stroke="black" points="578.61,-329.33 588.67,-332.66 582.88,-323.78 578.61,-329.33"/>
</g>
<!-- h2_2&#45;&gt;h3_6 -->
<g id="edge142" class="edge">
<title>h2_2&#45;&gt;h3_6</title>
<path fill="none" stroke="black" d="M446.2,-135.37C455.3,-141.7 465.13,-149.79 472.17,-159 538.6,-245.76 498.17,-299.92 564.17,-387 568.78,-393.07 574.58,-398.68 580.58,-403.63"/>
<polygon fill="black" stroke="black" points="578.11,-406.15 588.18,-409.45 582.37,-400.59 578.11,-406.15"/>
</g>
<!-- h2_2&#45;&gt;h3_7 -->
<g id="edge143" class="edge">
<title>h2_2&#45;&gt;h3_7</title>
<path fill="none" stroke="black" d="M446.38,-134.88C455.61,-141.18 465.48,-149.4 472.17,-159 552.88,-274.82 484.03,-346.79 564.17,-463 568.5,-469.27 574.18,-474.97 580.14,-479.94"/>
<polygon fill="black" stroke="black" points="577.68,-482.46 587.75,-485.76 581.93,-476.9 577.68,-482.46"/>
</g>
<!-- h2_2&#45;&gt;h3_8 -->
<g id="edge144" class="edge">
<title>h2_2&#45;&gt;h3_8</title>
<path fill="none" stroke="black" d="M446.66,-134.69C455.93,-140.97 465.76,-149.21 472.17,-159 567.47,-304.31 469.59,-393.23 564.17,-539 568.36,-545.45 574.03,-551.26 580.03,-556.27"/>
<polygon fill="black" stroke="black" points="577.65,-558.86 587.73,-562.12 581.89,-553.28 577.65,-558.86"/>
</g>
<!-- h2_3&#45;&gt;h3_1 -->
<g id="edge145" class="edge">
<title>h2_3&#45;&gt;h3_1</title>
<path fill="none" stroke="black" d="M444.6,-180.18C453.29,-173.65 463.25,-166.05 472.17,-159 513.78,-126.11 522.73,-116.09 564.17,-83 569.82,-78.49 575.89,-73.74 581.76,-69.18"/>
<polygon fill="black" stroke="black" points="583.77,-72.05 589.55,-63.17 579.49,-66.51 583.77,-72.05"/>
</g>
<!-- h2_3&#45;&gt;h3_2 -->
<g id="edge146" class="edge">
<title>h2_3&#45;&gt;h3_2</title>
<path fill="none" stroke="black" d="M448.15,-186.59C481.43,-173.38 539.04,-150.52 576.69,-135.58"/>
<polygon fill="black" stroke="black" points="577.8,-138.9 585.8,-131.96 575.22,-132.4 577.8,-138.9"/>
</g>
<!-- h2_3&#45;&gt;h3_3 -->
<g id="edge147" class="edge">
<title>h2_3&#45;&gt;h3_3</title>
<path fill="none" stroke="black" d="M450.18,-197C482.95,-197 537.16,-197 574.05,-197"/>
<polygon fill="black" stroke="black" points="573.85,-200.5 583.85,-197 573.85,-193.5 573.85,-200.5"/>
</g>
<!-- h2_3&#45;&gt;h3_4 -->
<g id="edge148" class="edge">
<title>h2_3&#45;&gt;h3_4</title>
<path fill="none" stroke="black" d="M448.15,-207.41C481.43,-220.62 539.04,-243.48 576.69,-258.42"/>
<polygon fill="black" stroke="black" points="575.22,-261.6 585.8,-262.04 577.8,-255.1 575.22,-261.6"/>
</g>
<!-- h2_3&#45;&gt;h3_5 -->
<g id="edge149" class="edge">
<title>h2_3&#45;&gt;h3_5</title>
<path fill="none" stroke="black" d="M444.6,-213.82C453.29,-220.35 463.25,-227.95 472.17,-235 513.78,-267.89 522.73,-277.91 564.17,-311 569.82,-315.51 575.89,-320.26 581.76,-324.82"/>
<polygon fill="black" stroke="black" points="579.49,-327.49 589.55,-330.83 583.77,-321.95 579.49,-327.49"/>
</g>
<!-- h2_3&#45;&gt;h3_6 -->
<g id="edge150" class="edge">
<title>h2_3&#45;&gt;h3_6</title>
<path fill="none" stroke="black" d="M445.72,-212.16C454.65,-218.55 464.48,-226.47 472.17,-235 525.06,-293.64 511.58,-328.1 564.17,-387 569.2,-392.63 575.15,-398.02 581.15,-402.87"/>
<polygon fill="black" stroke="black" points="578.61,-405.33 588.67,-408.66 582.88,-399.78 578.61,-405.33"/>
</g>
<!-- h2_3&#45;&gt;h3_7 -->
<g id="edge151" class="edge">
<title>h2_3&#45;&gt;h3_7</title>
<path fill="none" stroke="black" d="M446.2,-211.37C455.3,-217.7 465.13,-225.79 472.17,-235 538.6,-321.76 498.17,-375.92 564.17,-463 568.78,-469.07 574.58,-474.68 580.58,-479.63"/>
<polygon fill="black" stroke="black" points="578.11,-482.15 588.18,-485.45 582.37,-476.59 578.11,-482.15"/>
</g>
<!-- h2_3&#45;&gt;h3_8 -->
<g id="edge152" class="edge">
<title>h2_3&#45;&gt;h3_8</title>
<path fill="none" stroke="black" d="M446.38,-210.88C455.61,-217.18 465.48,-225.4 472.17,-235 552.88,-350.82 484.03,-422.79 564.17,-539 568.5,-545.27 574.18,-550.97 580.14,-555.94"/>
<polygon fill="black" stroke="black" points="577.68,-558.46 587.75,-561.76 581.93,-552.9 577.68,-558.46"/>
</g>
<!-- h2_4&#45;&gt;h3_1 -->
<g id="edge153" class="edge">
<title>h2_4&#45;&gt;h3_1</title>
<path fill="none" stroke="black" d="M445.72,-257.84C454.65,-251.45 464.48,-243.53 472.17,-235 525.06,-176.36 511.58,-141.9 564.17,-83 569.2,-77.37 575.15,-71.98 581.15,-67.13"/>
<polygon fill="black" stroke="black" points="582.88,-70.22 588.67,-61.34 578.61,-64.67 582.88,-70.22"/>
</g>
<!-- h2_4&#45;&gt;h3_2 -->
<g id="edge154" class="edge">
<title>h2_4&#45;&gt;h3_2</title>
<path fill="none" stroke="black" d="M444.6,-256.18C453.29,-249.65 463.25,-242.05 472.17,-235 513.78,-202.11 522.73,-192.09 564.17,-159 569.82,-154.49 575.89,-149.74 581.76,-145.18"/>
<polygon fill="black" stroke="black" points="583.77,-148.05 589.55,-139.17 579.49,-142.51 583.77,-148.05"/>
</g>
<!-- h2_4&#45;&gt;h3_3 -->
<g id="edge155" class="edge">
<title>h2_4&#45;&gt;h3_3</title>
<path fill="none" stroke="black" d="M448.15,-262.59C481.43,-249.38 539.04,-226.52 576.69,-211.58"/>
<polygon fill="black" stroke="black" points="577.8,-214.9 585.8,-207.96 575.22,-208.4 577.8,-214.9"/>
</g>
<!-- h2_4&#45;&gt;h3_4 -->
<g id="edge156" class="edge">
<title>h2_4&#45;&gt;h3_4</title>
<path fill="none" stroke="black" d="M450.18,-273C482.95,-273 537.16,-273 574.05,-273"/>
<polygon fill="black" stroke="black" points="573.85,-276.5 583.85,-273 573.85,-269.5 573.85,-276.5"/>
</g>
<!-- h2_4&#45;&gt;h3_5 -->
<g id="edge157" class="edge">
<title>h2_4&#45;&gt;h3_5</title>
<path fill="none" stroke="black" d="M448.15,-283.41C481.43,-296.62 539.04,-319.48 576.69,-334.42"/>
<polygon fill="black" stroke="black" points="575.22,-337.6 585.8,-338.04 577.8,-331.1 575.22,-337.6"/>
</g>
<!-- h2_4&#45;&gt;h3_6 -->
<g id="edge158" class="edge">
<title>h2_4&#45;&gt;h3_6</title>
<path fill="none" stroke="black" d="M444.6,-289.82C453.29,-296.35 463.25,-303.95 472.17,-311 513.78,-343.89 522.73,-353.91 564.17,-387 569.82,-391.51 575.89,-396.26 581.76,-400.82"/>
<polygon fill="black" stroke="black" points="579.49,-403.49 589.55,-406.83 583.77,-397.95 579.49,-403.49"/>
</g>
<!-- h2_4&#45;&gt;h3_7 -->
<g id="edge159" class="edge">
<title>h2_4&#45;&gt;h3_7</title>
<path fill="none" stroke="black" d="M445.72,-288.16C454.65,-294.55 464.48,-302.47 472.17,-311 525.06,-369.64 511.58,-404.1 564.17,-463 569.2,-468.63 575.15,-474.02 581.15,-478.87"/>
<polygon fill="black" stroke="black" points="578.61,-481.33 588.67,-484.66 582.88,-475.78 578.61,-481.33"/>
</g>
<!-- h2_4&#45;&gt;h3_8 -->
<g id="edge160" class="edge">
<title>h2_4&#45;&gt;h3_8</title>
<path fill="none" stroke="black" d="M446.2,-287.37C455.3,-293.7 465.13,-301.79 472.17,-311 538.6,-397.76 498.17,-451.92 564.17,-539 568.78,-545.07 574.58,-550.68 580.58,-555.63"/>
<polygon fill="black" stroke="black" points="578.11,-558.15 588.18,-561.45 582.37,-552.59 578.11,-558.15"/>
</g>
<!-- h2_5&#45;&gt;h3_1 -->
<g id="edge161" class="edge">
<title>h2_5&#45;&gt;h3_1</title>
<path fill="none" stroke="black" d="M446.2,-334.63C455.3,-328.3 465.13,-320.21 472.17,-311 538.6,-224.24 498.17,-170.08 564.17,-83 568.78,-76.93 574.58,-71.32 580.58,-66.37"/>
<polygon fill="black" stroke="black" points="582.37,-69.41 588.18,-60.55 578.11,-63.85 582.37,-69.41"/>
</g>
<!-- h2_5&#45;&gt;h3_2 -->
<g id="edge162" class="edge">
<title>h2_5&#45;&gt;h3_2</title>
<path fill="none" stroke="black" d="M445.72,-333.84C454.65,-327.45 464.48,-319.53 472.17,-311 525.06,-252.36 511.58,-217.9 564.17,-159 569.2,-153.37 575.15,-147.98 581.15,-143.13"/>
<polygon fill="black" stroke="black" points="582.88,-146.22 588.67,-137.34 578.61,-140.67 582.88,-146.22"/>
</g>
<!-- h2_5&#45;&gt;h3_3 -->
<g id="edge163" class="edge">
<title>h2_5&#45;&gt;h3_3</title>
<path fill="none" stroke="black" d="M444.6,-332.18C453.29,-325.65 463.25,-318.05 472.17,-311 513.78,-278.11 522.73,-268.09 564.17,-235 569.82,-230.49 575.89,-225.74 581.76,-221.18"/>
<polygon fill="black" stroke="black" points="583.77,-224.05 589.55,-215.17 579.49,-218.51 583.77,-224.05"/>
</g>
<!-- h2_5&#45;&gt;h3_4 -->
<g id="edge164" class="edge">
<title>h2_5&#45;&gt;h3_4</title>
<path fill="none" stroke="black" d="M448.15,-338.59C481.43,-325.38 539.04,-302.52 576.69,-287.58"/>
<polygon fill="black" stroke="black" points="577.8,-290.9 585.8,-283.96 575.22,-284.4 577.8,-290.9"/>
</g>
<!-- h2_5&#45;&gt;h3_5 -->
<g id="edge165" class="edge">
<title>h2_5&#45;&gt;h3_5</title>
<path fill="none" stroke="black" d="M450.18,-349C482.95,-349 537.16,-349 574.05,-349"/>
<polygon fill="black" stroke="black" points="573.85,-352.5 583.85,-349 573.85,-345.5 573.85,-352.5"/>
</g>
<!-- h2_5&#45;&gt;h3_6 -->
<g id="edge166" class="edge">
<title>h2_5&#45;&gt;h3_6</title>
<path fill="none" stroke="black" d="M448.15,-359.41C481.43,-372.62 539.04,-395.48 576.69,-410.42"/>
<polygon fill="black" stroke="black" points="575.22,-413.6 585.8,-414.04 577.8,-407.1 575.22,-413.6"/>
</g>
<!-- h2_5&#45;&gt;h3_7 -->
<g id="edge167" class="edge">
<title>h2_5&#45;&gt;h3_7</title>
<path fill="none" stroke="black" d="M444.6,-365.82C453.29,-372.35 463.25,-379.95 472.17,-387 513.78,-419.89 522.73,-429.91 564.17,-463 569.82,-467.51 575.89,-472.26 581.76,-476.82"/>
<polygon fill="black" stroke="black" points="579.49,-479.49 589.55,-482.83 583.77,-473.95 579.49,-479.49"/>
</g>
<!-- h2_5&#45;&gt;h3_8 -->
<g id="edge168" class="edge">
<title>h2_5&#45;&gt;h3_8</title>
<path fill="none" stroke="black" d="M445.72,-364.16C454.65,-370.55 464.48,-378.47 472.17,-387 525.06,-445.64 511.58,-480.1 564.17,-539 569.2,-544.63 575.15,-550.02 581.15,-554.87"/>
<polygon fill="black" stroke="black" points="578.61,-557.33 588.67,-560.66 582.88,-551.78 578.61,-557.33"/>
</g>
<!-- h2_6&#45;&gt;h3_1 -->
<g id="edge169" class="edge">
<title>h2_6&#45;&gt;h3_1</title>
<path fill="none" stroke="black" d="M446.38,-411.12C455.61,-404.82 465.48,-396.6 472.17,-387 552.88,-271.18 484.03,-199.21 564.17,-83 568.5,-76.73 574.18,-71.03 580.14,-66.06"/>
<polygon fill="black" stroke="black" points="581.93,-69.1 587.75,-60.24 577.68,-63.54 581.93,-69.1"/>
</g>
<!-- h2_6&#45;&gt;h3_2 -->
<g id="edge170" class="edge">
<title>h2_6&#45;&gt;h3_2</title>
<path fill="none" stroke="black" d="M446.2,-410.63C455.3,-404.3 465.13,-396.21 472.17,-387 538.6,-300.24 498.17,-246.08 564.17,-159 568.78,-152.93 574.58,-147.32 580.58,-142.37"/>
<polygon fill="black" stroke="black" points="582.37,-145.41 588.18,-136.55 578.11,-139.85 582.37,-145.41"/>
</g>
<!-- h2_6&#45;&gt;h3_3 -->
<g id="edge171" class="edge">
<title>h2_6&#45;&gt;h3_3</title>
<path fill="none" stroke="black" d="M445.72,-409.84C454.65,-403.45 464.48,-395.53 472.17,-387 525.06,-328.36 511.58,-293.9 564.17,-235 569.2,-229.37 575.15,-223.98 581.15,-219.13"/>
<polygon fill="black" stroke="black" points="582.88,-222.22 588.67,-213.34 578.61,-216.67 582.88,-222.22"/>
</g>
<!-- h2_6&#45;&gt;h3_4 -->
<g id="edge172" class="edge">
<title>h2_6&#45;&gt;h3_4</title>
<path fill="none" stroke="black" d="M444.6,-408.18C453.29,-401.65 463.25,-394.05 472.17,-387 513.78,-354.11 522.73,-344.09 564.17,-311 569.82,-306.49 575.89,-301.74 581.76,-297.18"/>
<polygon fill="black" stroke="black" points="583.77,-300.05 589.55,-291.17 579.49,-294.51 583.77,-300.05"/>
</g>
<!-- h2_6&#45;&gt;h3_5 -->
<g id="edge173" class="edge">
<title>h2_6&#45;&gt;h3_5</title>
<path fill="none" stroke="black" d="M448.15,-414.59C481.43,-401.38 539.04,-378.52 576.69,-363.58"/>
<polygon fill="black" stroke="black" points="577.8,-366.9 585.8,-359.96 575.22,-360.4 577.8,-366.9"/>
</g>
<!-- h2_6&#45;&gt;h3_6 -->
<g id="edge174" class="edge">
<title>h2_6&#45;&gt;h3_6</title>
<path fill="none" stroke="black" d="M450.18,-425C482.95,-425 537.16,-425 574.05,-425"/>
<polygon fill="black" stroke="black" points="573.85,-428.5 583.85,-425 573.85,-421.5 573.85,-428.5"/>
</g>
<!-- h2_6&#45;&gt;h3_7 -->
<g id="edge175" class="edge">
<title>h2_6&#45;&gt;h3_7</title>
<path fill="none" stroke="black" d="M448.15,-435.41C481.43,-448.62 539.04,-471.48 576.69,-486.42"/>
<polygon fill="black" stroke="black" points="575.22,-489.6 585.8,-490.04 577.8,-483.1 575.22,-489.6"/>
</g>
<!-- h2_6&#45;&gt;h3_8 -->
<g id="edge176" class="edge">
<title>h2_6&#45;&gt;h3_8</title>
<path fill="none" stroke="black" d="M444.6,-441.82C453.29,-448.35 463.25,-455.95 472.17,-463 513.78,-495.89 522.73,-505.91 564.17,-539 569.82,-543.51 575.89,-548.26 581.76,-552.82"/>
<polygon fill="black" stroke="black" points="579.49,-555.49 589.55,-558.83 583.77,-549.95 579.49,-555.49"/>
</g>
<!-- h2_7&#45;&gt;h3_1 -->
<g id="edge177" class="edge">
<title>h2_7&#45;&gt;h3_1</title>
<path fill="none" stroke="black" d="M446.66,-487.31C455.93,-481.03 465.76,-472.79 472.17,-463 567.47,-317.69 469.59,-228.77 564.17,-83 568.36,-76.55 574.03,-70.74 580.03,-65.73"/>
<polygon fill="black" stroke="black" points="581.89,-68.72 587.73,-59.88 577.65,-63.14 581.89,-68.72"/>
</g>
<!-- h2_7&#45;&gt;h3_2 -->
<g id="edge178" class="edge">
<title>h2_7&#45;&gt;h3_2</title>
<path fill="none" stroke="black" d="M446.38,-487.12C455.61,-480.82 465.48,-472.6 472.17,-463 552.88,-347.18 484.03,-275.21 564.17,-159 568.5,-152.73 574.18,-147.03 580.14,-142.06"/>
<polygon fill="black" stroke="black" points="581.93,-145.1 587.75,-136.24 577.68,-139.54 581.93,-145.1"/>
</g>
<!-- h2_7&#45;&gt;h3_3 -->
<g id="edge179" class="edge">
<title>h2_7&#45;&gt;h3_3</title>
<path fill="none" stroke="black" d="M446.2,-486.63C455.3,-480.3 465.13,-472.21 472.17,-463 538.6,-376.24 498.17,-322.08 564.17,-235 568.78,-228.93 574.58,-223.32 580.58,-218.37"/>
<polygon fill="black" stroke="black" points="582.37,-221.41 588.18,-212.55 578.11,-215.85 582.37,-221.41"/>
</g>
<!-- h2_7&#45;&gt;h3_4 -->
<g id="edge180" class="edge">
<title>h2_7&#45;&gt;h3_4</title>
<path fill="none" stroke="black" d="M445.72,-485.84C454.65,-479.45 464.48,-471.53 472.17,-463 525.06,-404.36 511.58,-369.9 564.17,-311 569.2,-305.37 575.15,-299.98 581.15,-295.13"/>
<polygon fill="black" stroke="black" points="582.88,-298.22 588.67,-289.34 578.61,-292.67 582.88,-298.22"/>
</g>
<!-- h2_7&#45;&gt;h3_5 -->
<g id="edge181" class="edge">
<title>h2_7&#45;&gt;h3_5</title>
<path fill="none" stroke="black" d="M444.6,-484.18C453.29,-477.65 463.25,-470.05 472.17,-463 513.78,-430.11 522.73,-420.09 564.17,-387 569.82,-382.49 575.89,-377.74 581.76,-373.18"/>
<polygon fill="black" stroke="black" points="583.77,-376.05 589.55,-367.17 579.49,-370.51 583.77,-376.05"/>
</g>
<!-- h2_7&#45;&gt;h3_6 -->
<g id="edge182" class="edge">
<title>h2_7&#45;&gt;h3_6</title>
<path fill="none" stroke="black" d="M448.15,-490.59C481.43,-477.38 539.04,-454.52 576.69,-439.58"/>
<polygon fill="black" stroke="black" points="577.8,-442.9 585.8,-435.96 575.22,-436.4 577.8,-442.9"/>
</g>
<!-- h2_7&#45;&gt;h3_7 -->
<g id="edge183" class="edge">
<title>h2_7&#45;&gt;h3_7</title>
<path fill="none" stroke="black" d="M450.18,-501C482.95,-501 537.16,-501 574.05,-501"/>
<polygon fill="black" stroke="black" points="573.85,-504.5 583.85,-501 573.85,-497.5 573.85,-504.5"/>
</g>
<!-- h2_7&#45;&gt;h3_8 -->
<g id="edge184" class="edge">
<title>h2_7&#45;&gt;h3_8</title>
<path fill="none" stroke="black" d="M448.15,-511.41C481.43,-524.62 539.04,-547.48 576.69,-562.42"/>
<polygon fill="black" stroke="black" points="575.22,-565.6 585.8,-566.04 577.8,-559.1 575.22,-565.6"/>
</g>
<!-- h2_8&#45;&gt;h3_1 -->
<g id="edge185" class="edge">
<title>h2_8&#45;&gt;h3_1</title>
<path fill="none" stroke="black" d="M446.85,-563.44C456.15,-557.17 465.95,-548.91 472.17,-539 582.21,-363.96 454.99,-258.57 564.17,-83 568.24,-76.47 573.85,-70.63 579.84,-65.6"/>
<polygon fill="black" stroke="black" points="581.69,-68.59 587.54,-59.75 577.46,-63.02 581.69,-68.59"/>
</g>
<!-- h2_8&#45;&gt;h3_2 -->
<g id="edge186" class="edge">
<title>h2_8&#45;&gt;h3_2</title>
<path fill="none" stroke="black" d="M446.66,-563.31C455.93,-557.03 465.76,-548.79 472.17,-539 567.47,-393.69 469.59,-304.77 564.17,-159 568.36,-152.55 574.03,-146.74 580.03,-141.73"/>
<polygon fill="black" stroke="black" points="581.89,-144.72 587.73,-135.88 577.65,-139.14 581.89,-144.72"/>
</g>
<!-- h2_8&#45;&gt;h3_3 -->
<g id="edge187" class="edge">
<title>h2_8&#45;&gt;h3_3</title>
<path fill="none" stroke="black" d="M446.38,-563.12C455.61,-556.82 465.48,-548.6 472.17,-539 552.88,-423.18 484.03,-351.21 564.17,-235 568.5,-228.73 574.18,-223.03 580.14,-218.06"/>
<polygon fill="black" stroke="black" points="581.93,-221.1 587.75,-212.24 577.68,-215.54 581.93,-221.1"/>
</g>
<!-- h2_8&#45;&gt;h3_4 -->
<g id="edge188" class="edge">
<title>h2_8&#45;&gt;h3_4</title>
<path fill="none" stroke="black" d="M446.2,-562.63C455.3,-556.3 465.13,-548.21 472.17,-539 538.6,-452.24 498.17,-398.08 564.17,-311 568.78,-304.93 574.58,-299.32 580.58,-294.37"/>
<polygon fill="black" stroke="black" points="582.37,-297.41 588.18,-288.55 578.11,-291.85 582.37,-297.41"/>
</g>
<!-- h2_8&#45;&gt;h3_5 -->
<g id="edge189" class="edge">
<title>h2_8&#45;&gt;h3_5</title>
<path fill="none" stroke="black" d="M445.72,-561.84C454.65,-555.45 464.48,-547.53 472.17,-539 525.06,-480.36 511.58,-445.9 564.17,-387 569.2,-381.37 575.15,-375.98 581.15,-371.13"/>
<polygon fill="black" stroke="black" points="582.88,-374.22 588.67,-365.34 578.61,-368.67 582.88,-374.22"/>
</g>
<!-- h2_8&#45;&gt;h3_6 -->
<g id="edge190" class="edge">
<title>h2_8&#45;&gt;h3_6</title>
<path fill="none" stroke="black" d="M444.6,-560.18C453.29,-553.65 463.25,-546.05 472.17,-539 513.78,-506.11 522.73,-496.09 564.17,-463 569.82,-458.49 575.89,-453.74 581.76,-449.18"/>
<polygon fill="black" stroke="black" points="583.77,-452.05 589.55,-443.17 579.49,-446.51 583.77,-452.05"/>
</g>
<!-- h2_8&#45;&gt;h3_7 -->
<g id="edge191" class="edge">
<title>h2_8&#45;&gt;h3_7</title>
<path fill="none" stroke="black" d="M448.15,-566.59C481.43,-553.38 539.04,-530.52 576.69,-515.58"/>
<polygon fill="black" stroke="black" points="577.8,-518.9 585.8,-511.96 575.22,-512.4 577.8,-518.9"/>
</g>
<!-- h2_8&#45;&gt;h3_8 -->
<g id="edge192" class="edge">
<title>h2_8&#45;&gt;h3_8</title>
<path fill="none" stroke="black" d="M450.18,-577C482.95,-577 537.16,-577 574.05,-577"/>
<polygon fill="black" stroke="black" points="573.85,-580.5 583.85,-577 573.85,-573.5 573.85,-580.5"/>
</g>
<!-- y1 -->
<g id="node33" class="node">
<title>y1</title>
<ellipse fill="lightcoral" stroke="black" cx="801.55" cy="-197" rx="28.8" ry="28.8"/>
<text text-anchor="middle" x="801.55" y="-191.95" font-family="Times,serif" font-size="14.00">y1</text>
</g>
<!-- h3_1&#45;&gt;y1 -->
<g id="edge193" class="edge">
<title>h3_1&#45;&gt;y1</title>
<path fill="none" stroke="black" d="M638.14,-61.77C646.83,-68.29 656.79,-75.9 665.67,-83 702.46,-112.42 743.67,-147.59 770.74,-171.01"/>
<polygon fill="black" stroke="black" points="768.37,-173.58 778.21,-177.48 772.95,-168.29 768.37,-173.58"/>
</g>
<!-- y2 -->
<g id="node34" class="node">
<title>y2</title>
<ellipse fill="lightcoral" stroke="black" cx="801.55" cy="-273" rx="28.8" ry="28.8"/>
<text text-anchor="middle" x="801.55" y="-267.95" font-family="Times,serif" font-size="14.00">y2</text>
</g>
<!-- h3_1&#45;&gt;y2 -->
<g id="edge194" class="edge">
<title>h3_1&#45;&gt;y2</title>
<path fill="none" stroke="black" d="M639.22,-60.16C648.15,-66.55 657.98,-74.47 665.67,-83 718.56,-141.64 707.11,-174.35 757.67,-235 761.4,-239.47 765.66,-243.88 770.02,-248.03"/>
<polygon fill="black" stroke="black" points="767.52,-250.48 777.28,-254.6 772.22,-245.3 767.52,-250.48"/>
</g>
<!-- y3 -->
<g id="node35" class="node">
<title>y3</title>
<ellipse fill="lightcoral" stroke="black" cx="801.55" cy="-349" rx="28.8" ry="28.8"/>
<text text-anchor="middle" x="801.55" y="-343.95" font-family="Times,serif" font-size="14.00">y3</text>
</g>
<!-- h3_1&#45;&gt;y3 -->
<g id="edge195" class="edge">
<title>h3_1&#45;&gt;y3</title>
<path fill="none" stroke="black" d="M639.7,-59.37C648.8,-65.7 658.63,-73.79 665.67,-83 732.1,-169.76 694.67,-221.72 757.67,-311 761.03,-315.75 765.09,-320.32 769.36,-324.53"/>
<polygon fill="black" stroke="black" points="766.84,-326.97 776.58,-331.14 771.57,-321.81 766.84,-326.97"/>
</g>
<!-- y4 -->
<g id="node36" class="node">
<title>y4</title>
<ellipse fill="lightcoral" stroke="black" cx="801.55" cy="-425" rx="28.8" ry="28.8"/>
<text text-anchor="middle" x="801.55" y="-419.95" font-family="Times,serif" font-size="14.00">y4</text>
</g>
<!-- h3_1&#45;&gt;y4 -->
<g id="edge196" class="edge">
<title>h3_1&#45;&gt;y4</title>
<path fill="none" stroke="black" d="M639.88,-58.88C649.11,-65.18 658.98,-73.4 665.67,-83 746.38,-198.82 681.53,-268.13 757.67,-387 760.88,-392 764.92,-396.74 769.24,-401.06"/>
<polygon fill="black" stroke="black" points="766.86,-403.63 776.61,-407.8 771.59,-398.47 766.86,-403.63"/>
</g>
<!-- h3_2&#45;&gt;y1 -->
<g id="edge197" class="edge">
<title>h3_2&#45;&gt;y1</title>
<path fill="none" stroke="black" d="M641.56,-131.73C673.53,-144.85 727.86,-167.16 763.97,-181.98"/>
<polygon fill="black" stroke="black" points="762.57,-185.19 773.15,-185.75 765.23,-178.72 762.57,-185.19"/>
</g>
<!-- h3_2&#45;&gt;y2 -->
<g id="edge198" class="edge">
<title>h3_2&#45;&gt;y2</title>
<path fill="none" stroke="black" d="M638.14,-137.77C646.83,-144.29 656.79,-151.9 665.67,-159 702.46,-188.42 743.67,-223.59 770.74,-247.01"/>
<polygon fill="black" stroke="black" points="768.37,-249.58 778.21,-253.48 772.95,-244.29 768.37,-249.58"/>
</g>
<!-- h3_2&#45;&gt;y3 -->
<g id="edge199" class="edge">
<title>h3_2&#45;&gt;y3</title>
<path fill="none" stroke="black" d="M639.22,-136.16C648.15,-142.55 657.98,-150.47 665.67,-159 718.56,-217.64 707.11,-250.35 757.67,-311 761.4,-315.47 765.66,-319.88 770.02,-324.03"/>
<polygon fill="black" stroke="black" points="767.52,-326.48 777.28,-330.6 772.22,-321.3 767.52,-326.48"/>
</g>
<!-- h3_2&#45;&gt;y4 -->
<g id="edge200" class="edge">
<title>h3_2&#45;&gt;y4</title>
<path fill="none" stroke="black" d="M639.7,-135.37C648.8,-141.7 658.63,-149.79 665.67,-159 732.1,-245.76 694.67,-297.72 757.67,-387 761.03,-391.75 765.09,-396.32 769.36,-400.53"/>
<polygon fill="black" stroke="black" points="766.84,-402.97 776.58,-407.14 771.57,-397.81 766.84,-402.97"/>
</g>
<!-- h3_3&#45;&gt;y1 -->
<g id="edge201" class="edge">
<title>h3_3&#45;&gt;y1</title>
<path fill="none" stroke="black" d="M643.54,-197C674.89,-197 725.83,-197 761.15,-197"/>
<polygon fill="black" stroke="black" points="760.96,-200.5 770.96,-197 760.96,-193.5 760.96,-200.5"/>
</g>
<!-- h3_3&#45;&gt;y2 -->
<g id="edge202" class="edge">
<title>h3_3&#45;&gt;y2</title>
<path fill="none" stroke="black" d="M641.56,-207.73C673.53,-220.85 727.86,-243.16 763.97,-257.98"/>
<polygon fill="black" stroke="black" points="762.57,-261.19 773.15,-261.75 765.23,-254.72 762.57,-261.19"/>
</g>
<!-- h3_3&#45;&gt;y3 -->
<g id="edge203" class="edge">
<title>h3_3&#45;&gt;y3</title>
<path fill="none" stroke="black" d="M638.14,-213.77C646.83,-220.29 656.79,-227.9 665.67,-235 702.46,-264.42 743.67,-299.59 770.74,-323.01"/>
<polygon fill="black" stroke="black" points="768.37,-325.58 778.21,-329.48 772.95,-320.29 768.37,-325.58"/>
</g>
<!-- h3_3&#45;&gt;y4 -->
<g id="edge204" class="edge">
<title>h3_3&#45;&gt;y4</title>
<path fill="none" stroke="black" d="M639.22,-212.16C648.15,-218.55 657.98,-226.47 665.67,-235 718.56,-293.64 707.11,-326.35 757.67,-387 761.4,-391.47 765.66,-395.88 770.02,-400.03"/>
<polygon fill="black" stroke="black" points="767.52,-402.48 777.28,-406.6 772.22,-397.3 767.52,-402.48"/>
</g>
<!-- h3_4&#45;&gt;y1 -->
<g id="edge205" class="edge">
<title>h3_4&#45;&gt;y1</title>
<path fill="none" stroke="black" d="M641.56,-262.27C673.53,-249.15 727.86,-226.84 763.97,-212.02"/>
<polygon fill="black" stroke="black" points="765.23,-215.28 773.15,-208.25 762.57,-208.81 765.23,-215.28"/>
</g>
<!-- h3_4&#45;&gt;y2 -->
<g id="edge206" class="edge">
<title>h3_4&#45;&gt;y2</title>
<path fill="none" stroke="black" d="M643.54,-273C674.89,-273 725.83,-273 761.15,-273"/>
<polygon fill="black" stroke="black" points="760.96,-276.5 770.96,-273 760.96,-269.5 760.96,-276.5"/>
</g>
<!-- h3_4&#45;&gt;y3 -->
<g id="edge207" class="edge">
<title>h3_4&#45;&gt;y3</title>
<path fill="none" stroke="black" d="M641.56,-283.73C673.53,-296.85 727.86,-319.16 763.97,-333.98"/>
<polygon fill="black" stroke="black" points="762.57,-337.19 773.15,-337.75 765.23,-330.72 762.57,-337.19"/>
</g>
<!-- h3_4&#45;&gt;y4 -->
<g id="edge208" class="edge">
<title>h3_4&#45;&gt;y4</title>
<path fill="none" stroke="black" d="M638.14,-289.77C646.83,-296.29 656.79,-303.9 665.67,-311 702.46,-340.42 743.67,-375.59 770.74,-399.01"/>
<polygon fill="black" stroke="black" points="768.37,-401.58 778.21,-405.48 772.95,-396.29 768.37,-401.58"/>
</g>
<!-- h3_5&#45;&gt;y1 -->
<g id="edge209" class="edge">
<title>h3_5&#45;&gt;y1</title>
<path fill="none" stroke="black" d="M638.14,-332.23C646.83,-325.71 656.79,-318.1 665.67,-311 702.46,-281.58 743.67,-246.41 770.74,-222.99"/>
<polygon fill="black" stroke="black" points="772.95,-225.71 778.21,-216.52 768.37,-220.42 772.95,-225.71"/>
</g>
<!-- h3_5&#45;&gt;y2 -->
<g id="edge210" class="edge">
<title>h3_5&#45;&gt;y2</title>
<path fill="none" stroke="black" d="M641.56,-338.27C673.53,-325.15 727.86,-302.84 763.97,-288.02"/>
<polygon fill="black" stroke="black" points="765.23,-291.28 773.15,-284.25 762.57,-284.81 765.23,-291.28"/>
</g>
<!-- h3_5&#45;&gt;y3 -->
<g id="edge211" class="edge">
<title>h3_5&#45;&gt;y3</title>
<path fill="none" stroke="black" d="M643.54,-349C674.89,-349 725.83,-349 761.15,-349"/>
<polygon fill="black" stroke="black" points="760.96,-352.5 770.96,-349 760.96,-345.5 760.96,-352.5"/>
</g>
<!-- h3_5&#45;&gt;y4 -->
<g id="edge212" class="edge">
<title>h3_5&#45;&gt;y4</title>
<path fill="none" stroke="black" d="M641.56,-359.73C673.53,-372.85 727.86,-395.16 763.97,-409.98"/>
<polygon fill="black" stroke="black" points="762.57,-413.19 773.15,-413.75 765.23,-406.72 762.57,-413.19"/>
</g>
<!-- h3_6&#45;&gt;y1 -->
<g id="edge213" class="edge">
<title>h3_6&#45;&gt;y1</title>
<path fill="none" stroke="black" d="M639.22,-409.84C648.15,-403.45 657.98,-395.53 665.67,-387 718.56,-328.36 707.11,-295.65 757.67,-235 761.4,-230.53 765.66,-226.12 770.02,-221.97"/>
<polygon fill="black" stroke="black" points="772.22,-224.7 777.28,-215.4 767.52,-219.52 772.22,-224.7"/>
</g>
<!-- h3_6&#45;&gt;y2 -->
<g id="edge214" class="edge">
<title>h3_6&#45;&gt;y2</title>
<path fill="none" stroke="black" d="M638.14,-408.23C646.83,-401.71 656.79,-394.1 665.67,-387 702.46,-357.58 743.67,-322.41 770.74,-298.99"/>
<polygon fill="black" stroke="black" points="772.95,-301.71 778.21,-292.52 768.37,-296.42 772.95,-301.71"/>
</g>
<!-- h3_6&#45;&gt;y3 -->
<g id="edge215" class="edge">
<title>h3_6&#45;&gt;y3</title>
<path fill="none" stroke="black" d="M641.56,-414.27C673.53,-401.15 727.86,-378.84 763.97,-364.02"/>
<polygon fill="black" stroke="black" points="765.23,-367.28 773.15,-360.25 762.57,-360.81 765.23,-367.28"/>
</g>
<!-- h3_6&#45;&gt;y4 -->
<g id="edge216" class="edge">
<title>h3_6&#45;&gt;y4</title>
<path fill="none" stroke="black" d="M643.54,-425C674.89,-425 725.83,-425 761.15,-425"/>
<polygon fill="black" stroke="black" points="760.96,-428.5 770.96,-425 760.96,-421.5 760.96,-428.5"/>
</g>
<!-- h3_7&#45;&gt;y1 -->
<g id="edge217" class="edge">
<title>h3_7&#45;&gt;y1</title>
<path fill="none" stroke="black" d="M639.7,-486.63C648.8,-480.3 658.63,-472.21 665.67,-463 732.1,-376.24 694.67,-324.28 757.67,-235 761.03,-230.25 765.09,-225.68 769.36,-221.47"/>
<polygon fill="black" stroke="black" points="771.57,-224.19 776.58,-214.86 766.84,-219.03 771.57,-224.19"/>
</g>
<!-- h3_7&#45;&gt;y2 -->
<g id="edge218" class="edge">
<title>h3_7&#45;&gt;y2</title>
<path fill="none" stroke="black" d="M639.22,-485.84C648.15,-479.45 657.98,-471.53 665.67,-463 718.56,-404.36 707.11,-371.65 757.67,-311 761.4,-306.53 765.66,-302.12 770.02,-297.97"/>
<polygon fill="black" stroke="black" points="772.22,-300.7 777.28,-291.4 767.52,-295.52 772.22,-300.7"/>
</g>
<!-- h3_7&#45;&gt;y3 -->
<g id="edge219" class="edge">
<title>h3_7&#45;&gt;y3</title>
<path fill="none" stroke="black" d="M638.14,-484.23C646.83,-477.71 656.79,-470.1 665.67,-463 702.46,-433.58 743.67,-398.41 770.74,-374.99"/>
<polygon fill="black" stroke="black" points="772.95,-377.71 778.21,-368.52 768.37,-372.42 772.95,-377.71"/>
</g>
<!-- h3_7&#45;&gt;y4 -->
<g id="edge220" class="edge">
<title>h3_7&#45;&gt;y4</title>
<path fill="none" stroke="black" d="M641.56,-490.27C673.53,-477.15 727.86,-454.84 763.97,-440.02"/>
<polygon fill="black" stroke="black" points="765.23,-443.28 773.15,-436.25 762.57,-436.81 765.23,-443.28"/>
</g>
<!-- h3_8&#45;&gt;y1 -->
<g id="edge221" class="edge">
<title>h3_8&#45;&gt;y1</title>
<path fill="none" stroke="black" d="M639.88,-563.12C649.11,-556.82 658.98,-548.6 665.67,-539 746.38,-423.18 681.53,-353.87 757.67,-235 760.88,-230 764.92,-225.26 769.24,-220.94"/>
<polygon fill="black" stroke="black" points="771.59,-223.53 776.61,-214.2 766.86,-218.37 771.59,-223.53"/>
</g>
<!-- h3_8&#45;&gt;y2 -->
<g id="edge222" class="edge">
<title>h3_8&#45;&gt;y2</title>
<path fill="none" stroke="black" d="M639.7,-562.63C648.8,-556.3 658.63,-548.21 665.67,-539 732.1,-452.24 694.67,-400.28 757.67,-311 761.03,-306.25 765.09,-301.68 769.36,-297.47"/>
<polygon fill="black" stroke="black" points="771.57,-300.19 776.58,-290.86 766.84,-295.03 771.57,-300.19"/>
</g>
<!-- h3_8&#45;&gt;y3 -->
<g id="edge223" class="edge">
<title>h3_8&#45;&gt;y3</title>
<path fill="none" stroke="black" d="M639.22,-561.84C648.15,-555.45 657.98,-547.53 665.67,-539 718.56,-480.36 707.11,-447.65 757.67,-387 761.4,-382.53 765.66,-378.12 770.02,-373.97"/>
<polygon fill="black" stroke="black" points="772.22,-376.7 777.28,-367.4 767.52,-371.52 772.22,-376.7"/>
</g>
<!-- h3_8&#45;&gt;y4 -->
<g id="edge224" class="edge">
<title>h3_8&#45;&gt;y4</title>
<path fill="none" stroke="black" d="M638.14,-560.23C646.83,-553.71 656.79,-546.1 665.67,-539 702.46,-509.58 743.67,-474.41 770.74,-450.99"/>
<polygon fill="black" stroke="black" points="772.95,-453.71 778.21,-444.52 768.37,-448.42 772.95,-453.71"/>
</g>
</g>
</svg>
